<svg xmlns="http://www.w3.org/2000/svg"><path d="M41.75,8.67,38,3.11A2.5,2.5,0,0,0,36,2H9A2.5,2.5,0,0,0,7,3.11L3.25,8.67A1.5,1.5,0,0,0,3,9.5v3a7.48,7.48,0,0,0,3,6H6v13A3.5,3.5,0,0,0,9.5,35H15v2.5A2.5,2.5,0,0,1,12.5,40H12a1.5,1.5,0,0,0,0,3H33a1.5,1.5,0,0,0,0-3h-.5A2.5,2.5,0,0,1,30,37.5V35h5.5A3.5,3.5,0,0,0,39,31.5v-13h0a7.48,7.48,0,0,0,3-6v-3A1.5,1.5,0,0,0,41.75,8.67ZM9.3,5H35.7l2.66,4H6.64Zm17.79,7a1.64,1.64,0,0,0-.09.5,4.5,4.5,0,0,1-9,0,1.64,1.64,0,0,0-.09-.5ZM6,12h9.09a1.64,1.64,0,0,0-.09.5,4.5,4.5,0,0,1-9,0ZM27.61,40H17.39A5.4,5.4,0,0,0,18,37.5V35h9v2.5A5.4,5.4,0,0,0,27.61,40ZM36,31.5a.5.5,0,0,1-.5.5H9.5a.5.5,0,0,1-.5-.5V19.85a7.41,7.41,0,0,0,1.5.15,7.49,7.49,0,0,0,6-3,7.47,7.47,0,0,0,12,0,7.49,7.49,0,0,0,6,3,7.41,7.41,0,0,0,1.5-.15ZM34.5,17A4.51,4.51,0,0,1,30,12.5a1.64,1.64,0,0,0-.09-.5H39v.5A4.51,4.51,0,0,1,34.5,17Z" class="jsx-2524076103"></path></svg>