<svg xmlns="http://www.w3.org/2000/svg">
    <symbol id="modules-arrow-right">
        <svg xmlns="http://www.w3.org/2000/svg" viewBox="0 0 20 20">
            <path
                d="M17.707 9.293l-5-5c-.39-.39-1.023-.39-1.414 0s-.39 1.023 0 1.414L14.586 9H3c-.553 0-1 .448-1 1s.447 1 1 1h11.586l-3.293 3.293c-.39.39-.39 1.023 0 1.414.195.195.45.293.707.293s.512-.098.707-.293l5-5c.39-.39.39-1.023 0-1.414z"
            />
        </svg>
    </symbol>
    <symbol id="expand">
        <svg xmlns="http://www.w3.org/2000/svg" viewBox="0 0 44 44">
            <path d="M4 20.4h35.8v4.3H4z" />
            <path d="M19.7 4.7H24v35.8h-4.3z" />
        </svg>
    </symbol>
    <symbol id="collapse">
        <svg xmlns="http://www.w3.org/2000/svg" viewBox="0 0 44 44"><path d="M4 21.4h35.8v4.3H4z" /></svg>
    </symbol>
    <symbol id="logos-shopify-black">
        <svg xmlns="http://www.w3.org/2000/svg" viewBox="0 0 608 173.7">
            <path
                fill="#95BF47"
                d="M130.7 32.9c-.1-.9-.9-1.3-1.5-1.4-.6-.1-12.6-.2-12.6-.2s-10.1-9.8-11.1-10.8-2.9-.7-3.7-.5c0 0-1.9.6-5.1 1.6-.5-1.7-1.3-3.8-2.4-5.9-3.6-6.9-8.8-10.5-15.2-10.5-.4 0-.9 0-1.3.1-.2-.2-.4-.4-.6-.7-2.8-3-6.3-4.4-10.5-4.3-8.2.2-16.3 6.1-23 16.7-4.7 7.4-8.2 16.7-9.2 23.9-9.4 2.9-16 4.9-16.1 5-4.7 1.5-4.9 1.6-5.5 6.1C12.4 55.3 0 151.4 0 151.4l104.1 18 45.1-11.2S130.8 33.7 130.7 32.9zm-39.2-9.7c-2.4.7-5.1 1.6-8.1 2.5-.1-4.1-.6-9.9-2.5-14.9 6.3 1.2 9.3 8.2 10.6 12.4zM78 27.4c-5.5 1.7-11.4 3.5-17.4 5.4 1.7-6.4 4.9-12.8 8.8-17 1.5-1.6 3.5-3.3 5.9-4.3 2.3 4.7 2.7 11.4 2.7 15.9zM66.8 5.8c1.9 0 3.5.4 4.9 1.3-2.2 1.1-4.4 2.8-6.4 5-5.2 5.6-9.2 14.2-10.8 22.6-5 1.5-9.8 3-14.3 4.4 3-13.2 14-32.9 26.6-33.3z"
            />
            <path fill="#5E8E3E" d="M129.2 31.5c-.6-.1-12.6-.2-12.6-.2s-10.1-9.8-11.1-10.8c-.4-.4-.9-.6-1.4-.6v149.5l45.1-11.2S130.8 33.8 130.7 32.9c-.2-.9-.9-1.3-1.5-1.4z" />
            <path
                fill="#FFF"
                d="M79.1 54.7l-5.2 19.6s-5.8-2.7-12.8-2.2c-10.2.6-10.3 7-10.2 8.7.6 8.8 23.6 10.7 24.9 31.2 1 16.2-8.6 27.2-22.4 28.1-16.6 1-25.7-8.7-25.7-8.7l3.5-14.9s9.2 6.9 16.5 6.5c4.8-.3 6.5-4.2 6.3-7-.7-11.4-19.5-10.8-20.7-29.5-1-15.8 9.4-31.8 32.3-33.3 9-.8 13.5 1.5 13.5 1.5z"
            />
            <g>
                <path
                    d="M210.3 96.5c-5.2-2.8-7.9-5.2-7.9-8.5 0-4.2 3.7-6.9 9.6-6.9 6.8 0 12.8 2.8 12.8 2.8l4.8-14.6s-4.4-3.4-17.3-3.4c-18 0-30.5 10.3-30.5 24.8 0 8.2 5.8 14.5 13.6 19 6.3 3.6 8.5 6.1 8.5 9.9 0 3.9-3.1 7-9 7-8.7 0-16.9-4.5-16.9-4.5l-5.1 14.6s7.6 5.1 20.3 5.1c18.5 0 31.8-9.1 31.8-25.5.1-8.9-6.6-15.2-14.7-19.8zM284.1 65.7c-9.1 0-16.3 4.3-21.8 10.9l-.3-.1 7.9-41.4h-20.6l-20 105.3h20.6l6.9-36c2.7-13.6 9.7-22 16.3-22 4.6 0 6.4 3.1 6.4 7.6 0 2.8-.3 6.3-.9 9.1l-7.8 41.2h20.6l8.1-42.6c.9-4.5 1.5-9.9 1.5-13.4 0-11.5-6.2-18.6-16.9-18.6zM347.6 65.7c-24.8 0-41.2 22.4-41.2 47.4 0 16 9.9 28.8 28.4 28.8 24.3 0 40.8-21.8 40.8-47.4-.1-14.7-8.8-28.8-28-28.8zm-10.2 60.4c-7 0-10-6-10-13.4 0-11.8 6.1-31.1 17.3-31.1 7.3 0 9.7 6.3 9.7 12.4 0 12.7-6.1 32.1-17 32.1zM428.2 65.7c-13.9 0-21.8 12.2-21.8 12.2h-.3l1.2-11.1h-18.2c-.9 7.5-2.5 18.8-4.2 27.3l-14.3 75.4h20.6l5.7-30.5h.4s4.2 2.7 12.1 2.7c24.2 0 40-24.8 40-49.9.1-13.7-6.1-26.1-21.2-26.1zm-19.7 60.7c-5.4 0-8.5-3-8.5-3l3.4-19.3c2.4-12.8 9.1-21.4 16.3-21.4 6.3 0 8.2 5.8 8.2 11.4 0 13.3-7.9 32.3-19.4 32.3zM478.9 36.2c-6.6 0-11.8 5.2-11.8 12 0 6.1 3.9 10.3 9.7 10.3h.3c6.4 0 12-4.3 12.1-12 0-6-4-10.3-10.3-10.3zM450.1 140.4h20.6l14-73h-20.8zM537.1 67.2h-14.3l.7-3.4c1.2-7 5.4-13.3 12.2-13.3 3.7 0 6.6 1 6.6 1l4-16.1s-3.6-1.8-11.2-1.8c-7.3 0-14.6 2.1-20.2 6.9-7 6-10.3 14.6-12 23.3l-.6 3.4h-9.6l-3 15.5h9.6l-10.9 57.7H509l10.9-57.7h14.2l3-15.5zM586.7 67.4s-12.9 32.5-18.7 50.2h-.3c-.4-5.7-5.1-50.2-5.1-50.2H541l12.4 67.1c.3 1.5.1 2.4-.4 3.4-2.4 4.6-6.4 9.1-11.2 12.4-3.9 2.8-8.2 4.6-11.7 5.8l5.7 17.5c4.2-.9 12.8-4.3 20.2-11.2 9.4-8.8 18.1-22.4 27-40.9l25.2-54.1h-21.5z"
                />
            </g>
        </svg>
    </symbol>
    <symbol id="modules-caret-right">
        <svg xmlns="http://www.w3.org/2000/svg" viewBox="-242.1 245.6 6.6 10.3"><path d="M-235.6 250.7l-5.1 5.2-1.4-1.4 3.7-3.8-3.7-3.7 1.4-1.4" /></svg>
    </symbol>
    <symbol id="modules-caret-down">
        <svg xmlns="http://www.w3.org/2000/svg" baseProfile="tiny" viewBox="0 0 10.289 6.563"><path d="M5.212 6.563L0 1.423 1.404 0l3.788 3.735L8.865.01l1.424 1.404" /></svg>
    </symbol>
    <symbol id="modules-mobile-hamburger">
        <svg xmlns="http://www.w3.org/2000/svg" viewBox="0 0 20 20">
            <path
                d="M19 11H1c-.552 0-1-.447-1-1s.448-1 1-1h18c.552 0 1 .447 1 1s-.448 1-1 1zm0-7H1c-.552 0-1-.447-1-1s.448-1 1-1h18c.552 0 1 .447 1 1s-.448 1-1 1zm0 14H1c-.552 0-1-.447-1-1s.448-1 1-1h18c.552 0 1 .447 1 1s-.448 1-1 1z"
            />
        </svg>
    </symbol>
    <symbol id="modules-cancel">
        <svg xmlns="http://www.w3.org/2000/svg" viewBox="0 0 20 20">
            <path
                d="M11.414 10l6.293-6.293c.39-.39.39-1.023 0-1.414s-1.023-.39-1.414 0L10 8.586 3.707 2.293c-.39-.39-1.023-.39-1.414 0s-.39 1.023 0 1.414L8.586 10l-6.293 6.293c-.39.39-.39 1.023 0 1.414.195.195.45.293.707.293s.512-.098.707-.293L10 11.414l6.293 6.293c.195.195.45.293.707.293s.512-.098.707-.293c.39-.39.39-1.023 0-1.414L11.414 10z"
            />
        </svg>
    </symbol>
    <symbol id="modules-nav-external-indicator">
        <svg xmlns="http://www.w3.org/2000/svg" viewBox="0 0 7 7"><path d="M7,7V0H0L7,7z" /></svg>
    </symbol>
    <symbol id="modules-play">
        <svg xmlns="http://www.w3.org/2000/svg" viewBox="0 0 20 20">
            <path d="M5,3.51,15.82,10,5,16.49v-13M4.33,1A1.33,1.33,0,0,0,3,2.33V17.67A1.33,1.33,0,0,0,4.33,19,1.3,1.3,0,0,0,5,18.81L17.8,11.14a1.33,1.33,0,0,0,0-2.28L5,1.19A1.3,1.3,0,0,0,4.33,1Z" />
        </svg>
    </symbol>
    <symbol id="modules-pause">
        <svg xmlns="http://www.w3.org/2000/svg" viewBox="0 0 20 20">
            <path d="M5.5,19a1,1,0,0,1-1-1V2a1,1,0,0,1,2,0V18A1,1,0,0,1,5.5,19Z" />
            <path d="M14.51,19a1,1,0,0,1-1-1V2a1,1,0,0,1,2,0V18A1,1,0,0,1,14.51,19Z" />
        </svg>
    </symbol>
    <symbol id="quote-lines">
        <svg xmlns="http://www.w3.org/2000/svg" viewBox="0 0 25 20"><path d="M22 0h3v20h-3zM11 0h3v20h-3zM0 0h3v20H0z" /></svg>
    </symbol>
    <symbol id="modules-social-facebook">
        <svg xmlns="http://www.w3.org/2000/svg" viewBox="0 0 30 30">
            <path d="M15.6 30V19.4h5V15h-5v-3.1c0-1 .6-1.9 1.3-1.9h3.8V5.6h-3.8c-3.1 0-5.6 2.8-5.6 6.3V15H7.5v4.4h3.8v10.1C4.8 27.9 0 22 0 15 0 6.7 6.7 0 15 0s15 6.7 15 15c0 8.1-6.4 14.7-14.4 15z" />
        </svg>
    </symbol>
    <symbol id="modules-social-twitter">
        <svg xmlns="http://www.w3.org/2000/svg" viewBox="0 0 30 30">
            <path
                d="M30 15c0 8.3-6.7 15-15 15S0 23.3 0 15 6.7 0 15 0s15 6.7 15 15zm-3.7-5.5c-.8.3-1.6.6-2.5.7.9-.5 1.5-1.4 1.8-2.4-.8.5-1.7.8-2.7 1-.8-.8-1.9-1.4-3.1-1.4-2.4 0-4.2 1.9-4.2 4.3 0 .3 0 .7.1 1-3.5-.2-6.7-1.9-8.8-4.5-.3.7-.6 1.4-.6 2.2 0 1.5.7 2.8 1.9 3.5-.7 0-1.4-.2-1.9-.5 0 2.1 1.5 3.8 3.4 4.2-.3.1-.7.1-1.1.1-.3 0-.6 0-.8-.1.5 1.7 2.1 2.8 4 2.9-1.5 1.1-3.3 1.9-5.3 1.9-.3 0-.7 0-1-.1 1.9 1.2 4.1 1.9 6.5 1.9 7.8 0 12.1-6.5 12.1-12.1v-.6c.9-.4 1.6-1.2 2.2-2z"
            />
        </svg>
    </symbol>
    <symbol id="modules-social-youtube">
        <svg xmlns="http://www.w3.org/2000/svg" viewBox="0 0 30 30">
            <path d="M30 15c0 8.3-6.7 15-15 15S0 23.3 0 15 6.7 0 15 0s15 6.7 15 15zm-5.6 0c0-6.9 0-6.9-9.4-6.9s-9.4 0-9.4 6.9 0 6.9 9.4 6.9 9.4 0 9.4-6.9zm-11.9-3.7l6.3 3.8-6.3 3.8v-7.6z" />
        </svg>
    </symbol>
    <symbol id="modules-social-instagram">
        <svg xmlns="http://www.w3.org/2000/svg" viewBox="0 0 30 30">
            <path
                d="M15 30C6.7 30 0 23.3 0 15c0-1.1.1-2.1.3-3.1h7.2c-.4 1-.6 2-.6 3.1 0 4.5 3.6 8.1 8.1 8.1s8.1-3.6 8.1-8.1c0-1.1-.2-2.2-.6-3.1h7.2c.2 1 .3 2 .3 3.1 0 8.3-6.7 15-15 15zm5.9-20.6c-1.5-1.5-3.6-2.5-5.9-2.5s-4.4 1-5.9 2.5h-8C3.3 3.9 8.7 0 15 0s11.7 3.9 13.9 9.4h-8zm-.3 5.6c0 3.1-2.5 5.6-5.6 5.6-3.1 0-5.6-2.5-5.6-5.6 0-3.1 2.5-5.6 5.6-5.6 3.1 0 5.6 2.5 5.6 5.6z"
            />
        </svg>
    </symbol>
    <symbol id="modules-social-linkedin">
        <svg xmlns="http://www.w3.org/2000/svg" viewBox="0 0 30 30">
            <path
                d="M30 15c0 8.3-6.7 15-15 15S0 23.3 0 15 6.7 0 15 0s15 6.7 15 15zM11.3 7.8c0-1.2-1-2.2-2.5-2.2s-2.5.9-2.5 2.2c0 1.2 1 2.2 2.5 2.2s2.5-1 2.5-2.2zm-.7 4.1H6.9v10.6h3.8V11.9zm13.8 5c0-3.4-1.7-5.6-4.4-5.6-1.5 0-2.6.9-3.1 2.3l-.1-1.6H13c0 .4.1 2.5.1 2.5v8.1h3.8V17c0-1.5.7-2.5 1.8-2.5s1.9.6 1.9 2.5v5.6h3.8v-5.7z"
            />
        </svg>
    </symbol>
    <symbol id="modules-social-pinterest">
        <svg xmlns="http://www.w3.org/2000/svg" viewBox="0 0 30 30">
            <path
                d="M15 30c-1.5 0-2.9-.2-4.3-.6.6-.9 1.2-2 1.5-3.2.2-.7 1-4.1 1-4.1.5 1 2 1.9 3.7 1.9 4.8 0 8.1-4.4 8.1-10.3 0-4.4-3.8-8.6-9.5-8.6-7.1-.1-10.6 5-10.6 9.3 0 2.6 1 4.9 3.1 5.7.3.1.7 0 .8-.4.1-.2.2-.9.3-1.2.1-.4 0-.5-.2-.8-.6-.7-1-1.6-1-3 0-3.8 2.8-7.2 7.4-7.2 4 0 6.2 2.5 6.2 5.8 0 4.3-1.9 8-4.8 8-1.6 0-2.7-1.3-2.4-2.9.5-1.9 1.3-4 1.3-5.3 0-1.2-.7-2.3-2-2.3-1.6 0-2.9 1.7-2.9 3.9 0 1.4.5 2.4.5 2.4S9.5 24 9.3 25.3c-.3 1.1-.4 2.4-.3 3.5-5.3-2.4-9-7.7-9-13.8C0 6.7 6.7 0 15 0s15 6.7 15 15-6.7 15-15 15z"
            />
        </svg>
    </symbol>
    <symbol id="modules-globe-simple">
        <svg xmlns="http://www.w3.org/2000/svg" viewBox="197.3 314.6 90.6 90.6">
            <path
                d="M287.9 359.9c0 25-20.2 45.3-45.3 45.3s-45.3-20.2-45.3-45.3 20.2-45.3 45.3-45.3 45.3 20.3 45.3 45.3zm-22.7 13.2c0-7.3-5.9-13.2-13.2-13.2h-7.5c-5.7 0-9.4-2.8-9.4-6.6 0-2.6 2.1-4.7 4.7-4.7 3.8 0 3.9 3.8 6.6 3.8 2.1 0 3.8-1.7 3.8-3.8 0-3.7-1.8-5.6-3.6-7.3 1-2 3.5-7.2 3.6-14.8 0-.9-.6-1.8-1.6-1.9-2-.3-4-.5-6-.5-15.9.5-26.4 8.1-26.4 20.7 0 11.3 9.4 20.7 20.7 20.7h.3c-.2.9-.3 1.9-.3 2.8 0 5.8 4 10.7 9.4 11.9v13.5c0 1 .8 1.9 1.9 1.9 5.7.2 17-9.3 17-22.5z"
            />
        </svg>
    </symbol>
    <symbol id="modules-nav-arrow-down">
        <svg xmlns="http://www.w3.org/2000/svg" viewBox="0 0 10 5"><path d="M0,0l5,5l5-5H0z" /></svg>
    </symbol>
    <symbol id="modules-close">
        <svg xmlns="http://www.w3.org/2000/svg" viewBox="0 0 44 44">
            <path d="M39.196 43.3L1.154 5.256l3.89-3.89 38.04 38.043z" />
            <path d="M.54 39.413L38.58 1.37l3.89 3.89L4.428 43.302z" />
        </svg>
    </symbol>
</svg>