<svg xmlns="http://www.w3.org/2000/svg">
    <symbol id="modules-arrow-right">
        <svg xmlns="http://www.w3.org/2000/svg" viewBox="0 0 20 20">
            <path d="M17.707 9.293l-5-5c-.39-.39-1.023-.39-1.414 0s-.39 1.023 0 1.414L14.586 9H3c-.553 0-1 .448-1 1s.447 1 1 1h11.586l-3.293 3.293c-.39.39-.39 1.023 0 1.414.195.195.45.293.707.293s.512-.098.707-.293l5-5c.39-.39.39-1.023 0-1.414z"/>
        </svg>
    </symbol>
    <symbol id="expand">
        <svg xmlns="http://www.w3.org/2000/svg" viewBox="0 0 44 44">
            <path d="M4 20.4h35.8v4.3H4z" />
            <path d="M19.7 4.7H24v35.8h-4.3z" />
        </svg>
    </symbol>
    <symbol id="collapse">
        <svg xmlns="http://www.w3.org/2000/svg" viewBox="0 0 44 44"><path d="M4 21.4h35.8v4.3H4z" /></svg>
    </symbol>
    <symbol id="logos-shopify-black">
        <svg xmlns="http://www.w3.org/2000/svg" viewBox="0 0 608 173.7">
            <path
                fill="#95BF47"
                d="M130.7 32.9c-.1-.9-.9-1.3-1.5-1.4-.6-.1-12.6-.2-12.6-.2s-10.1-9.8-11.1-10.8-2.9-.7-3.7-.5c0 0-1.9.6-5.1 1.6-.5-1.7-1.3-3.8-2.4-5.9-3.6-6.9-8.8-10.5-15.2-10.5-.4 0-.9 0-1.3.1-.2-.2-.4-.4-.6-.7-2.8-3-6.3-4.4-10.5-4.3-8.2.2-16.3 6.1-23 16.7-4.7 7.4-8.2 16.7-9.2 23.9-9.4 2.9-16 4.9-16.1 5-4.7 1.5-4.9 1.6-5.5 6.1C12.4 55.3 0 151.4 0 151.4l104.1 18 45.1-11.2S130.8 33.7 130.7 32.9zm-39.2-9.7c-2.4.7-5.1 1.6-8.1 2.5-.1-4.1-.6-9.9-2.5-14.9 6.3 1.2 9.3 8.2 10.6 12.4zM78 27.4c-5.5 1.7-11.4 3.5-17.4 5.4 1.7-6.4 4.9-12.8 8.8-17 1.5-1.6 3.5-3.3 5.9-4.3 2.3 4.7 2.7 11.4 2.7 15.9zM66.8 5.8c1.9 0 3.5.4 4.9 1.3-2.2 1.1-4.4 2.8-6.4 5-5.2 5.6-9.2 14.2-10.8 22.6-5 1.5-9.8 3-14.3 4.4 3-13.2 14-32.9 26.6-33.3z"
            />
            <path fill="#5E8E3E" d="M129.2 31.5c-.6-.1-12.6-.2-12.6-.2s-10.1-9.8-11.1-10.8c-.4-.4-.9-.6-1.4-.6v149.5l45.1-11.2S130.8 33.8 130.7 32.9c-.2-.9-.9-1.3-1.5-1.4z" />
            <path
                fill="#FFF"
                d="M79.1 54.7l-5.2 19.6s-5.8-2.7-12.8-2.2c-10.2.6-10.3 7-10.2 8.7.6 8.8 23.6 10.7 24.9 31.2 1 16.2-8.6 27.2-22.4 28.1-16.6 1-25.7-8.7-25.7-8.7l3.5-14.9s9.2 6.9 16.5 6.5c4.8-.3 6.5-4.2 6.3-7-.7-11.4-19.5-10.8-20.7-29.5-1-15.8 9.4-31.8 32.3-33.3 9-.8 13.5 1.5 13.5 1.5z"
            />
            <g>
                <path
                    d="M210.3 96.5c-5.2-2.8-7.9-5.2-7.9-8.5 0-4.2 3.7-6.9 9.6-6.9 6.8 0 12.8 2.8 12.8 2.8l4.8-14.6s-4.4-3.4-17.3-3.4c-18 0-30.5 10.3-30.5 24.8 0 8.2 5.8 14.5 13.6 19 6.3 3.6 8.5 6.1 8.5 9.9 0 3.9-3.1 7-9 7-8.7 0-16.9-4.5-16.9-4.5l-5.1 14.6s7.6 5.1 20.3 5.1c18.5 0 31.8-9.1 31.8-25.5.1-8.9-6.6-15.2-14.7-19.8zM284.1 65.7c-9.1 0-16.3 4.3-21.8 10.9l-.3-.1 7.9-41.4h-20.6l-20 105.3h20.6l6.9-36c2.7-13.6 9.7-22 16.3-22 4.6 0 6.4 3.1 6.4 7.6 0 2.8-.3 6.3-.9 9.1l-7.8 41.2h20.6l8.1-42.6c.9-4.5 1.5-9.9 1.5-13.4 0-11.5-6.2-18.6-16.9-18.6zM347.6 65.7c-24.8 0-41.2 22.4-41.2 47.4 0 16 9.9 28.8 28.4 28.8 24.3 0 40.8-21.8 40.8-47.4-.1-14.7-8.8-28.8-28-28.8zm-10.2 60.4c-7 0-10-6-10-13.4 0-11.8 6.1-31.1 17.3-31.1 7.3 0 9.7 6.3 9.7 12.4 0 12.7-6.1 32.1-17 32.1zM428.2 65.7c-13.9 0-21.8 12.2-21.8 12.2h-.3l1.2-11.1h-18.2c-.9 7.5-2.5 18.8-4.2 27.3l-14.3 75.4h20.6l5.7-30.5h.4s4.2 2.7 12.1 2.7c24.2 0 40-24.8 40-49.9.1-13.7-6.1-26.1-21.2-26.1zm-19.7 60.7c-5.4 0-8.5-3-8.5-3l3.4-19.3c2.4-12.8 9.1-21.4 16.3-21.4 6.3 0 8.2 5.8 8.2 11.4 0 13.3-7.9 32.3-19.4 32.3zM478.9 36.2c-6.6 0-11.8 5.2-11.8 12 0 6.1 3.9 10.3 9.7 10.3h.3c6.4 0 12-4.3 12.1-12 0-6-4-10.3-10.3-10.3zM450.1 140.4h20.6l14-73h-20.8zM537.1 67.2h-14.3l.7-3.4c1.2-7 5.4-13.3 12.2-13.3 3.7 0 6.6 1 6.6 1l4-16.1s-3.6-1.8-11.2-1.8c-7.3 0-14.6 2.1-20.2 6.9-7 6-10.3 14.6-12 23.3l-.6 3.4h-9.6l-3 15.5h9.6l-10.9 57.7H509l10.9-57.7h14.2l3-15.5zM586.7 67.4s-12.9 32.5-18.7 50.2h-.3c-.4-5.7-5.1-50.2-5.1-50.2H541l12.4 67.1c.3 1.5.1 2.4-.4 3.4-2.4 4.6-6.4 9.1-11.2 12.4-3.9 2.8-8.2 4.6-11.7 5.8l5.7 17.5c4.2-.9 12.8-4.3 20.2-11.2 9.4-8.8 18.1-22.4 27-40.9l25.2-54.1h-21.5z"
                />
            </g>
        </svg>
    </symbol>
    <symbol id="modules-caret-right">
        <svg xmlns="http://www.w3.org/2000/svg" viewBox="-242.1 245.6 6.6 10.3"><path d="M-235.6 250.7l-5.1 5.2-1.4-1.4 3.7-3.8-3.7-3.7 1.4-1.4" /></svg>
    </symbol>
    <symbol id="modules-caret-down">
        <svg xmlns="http://www.w3.org/2000/svg" baseProfile="tiny" viewBox="0 0 10.289 6.563"><path d="M5.212 6.563L0 1.423 1.404 0l3.788 3.735L8.865.01l1.424 1.404" /></svg>
    </symbol>
    <symbol id="modules-mobile-hamburger">
        <svg xmlns="http://www.w3.org/2000/svg" viewBox="0 0 20 20">
            <path
                d="M19 11H1c-.552 0-1-.447-1-1s.448-1 1-1h18c.552 0 1 .447 1 1s-.448 1-1 1zm0-7H1c-.552 0-1-.447-1-1s.448-1 1-1h18c.552 0 1 .447 1 1s-.448 1-1 1zm0 14H1c-.552 0-1-.447-1-1s.448-1 1-1h18c.552 0 1 .447 1 1s-.448 1-1 1z"
            />
        </svg>
    </symbol>
    <symbol id="modules-cancel">
        <svg xmlns="http://www.w3.org/2000/svg" viewBox="0 0 20 20">
            <path
                d="M11.414 10l6.293-6.293c.39-.39.39-1.023 0-1.414s-1.023-.39-1.414 0L10 8.586 3.707 2.293c-.39-.39-1.023-.39-1.414 0s-.39 1.023 0 1.414L8.586 10l-6.293 6.293c-.39.39-.39 1.023 0 1.414.195.195.45.293.707.293s.512-.098.707-.293L10 11.414l6.293 6.293c.195.195.45.293.707.293s.512-.098.707-.293c.39-.39.39-1.023 0-1.414L11.414 10z"
            />
        </svg>
    </symbol>
    <symbol id="modules-nav-external-indicator">
        <svg xmlns="http://www.w3.org/2000/svg" viewBox="0 0 7 7"><path d="M7,7V0H0L7,7z" /></svg>
    </symbol>
    <symbol id="modules-play">
        <svg xmlns="http://www.w3.org/2000/svg" viewBox="0 0 20 20">
            <path d="M5,3.51,15.82,10,5,16.49v-13M4.33,1A1.33,1.33,0,0,0,3,2.33V17.67A1.33,1.33,0,0,0,4.33,19,1.3,1.3,0,0,0,5,18.81L17.8,11.14a1.33,1.33,0,0,0,0-2.28L5,1.19A1.3,1.3,0,0,0,4.33,1Z" />
        </svg>
    </symbol>
    <symbol id="modules-pause">
        <svg xmlns="http://www.w3.org/2000/svg" viewBox="0 0 20 20">
            <path d="M5.5,19a1,1,0,0,1-1-1V2a1,1,0,0,1,2,0V18A1,1,0,0,1,5.5,19Z" />
            <path d="M14.51,19a1,1,0,0,1-1-1V2a1,1,0,0,1,2,0V18A1,1,0,0,1,14.51,19Z" />
        </svg>
    </symbol>
    <symbol id="quote-lines">
        <svg xmlns="http://www.w3.org/2000/svg" viewBox="0 0 25 20"><path d="M22 0h3v20h-3zM11 0h3v20h-3zM0 0h3v20H0z" /></svg>
    </symbol>
    <symbol id="modules-social-facebook">
        <svg xmlns="http://www.w3.org/2000/svg" viewBox="0 0 30 30">
            <path d="M15.6 30V19.4h5V15h-5v-3.1c0-1 .6-1.9 1.3-1.9h3.8V5.6h-3.8c-3.1 0-5.6 2.8-5.6 6.3V15H7.5v4.4h3.8v10.1C4.8 27.9 0 22 0 15 0 6.7 6.7 0 15 0s15 6.7 15 15c0 8.1-6.4 14.7-14.4 15z" />
        </svg>
    </symbol>
    <symbol id="modules-social-twitter">
        <svg xmlns="http://www.w3.org/2000/svg" viewBox="0 0 30 30">
            <path
                d="M30 15c0 8.3-6.7 15-15 15S0 23.3 0 15 6.7 0 15 0s15 6.7 15 15zm-3.7-5.5c-.8.3-1.6.6-2.5.7.9-.5 1.5-1.4 1.8-2.4-.8.5-1.7.8-2.7 1-.8-.8-1.9-1.4-3.1-1.4-2.4 0-4.2 1.9-4.2 4.3 0 .3 0 .7.1 1-3.5-.2-6.7-1.9-8.8-4.5-.3.7-.6 1.4-.6 2.2 0 1.5.7 2.8 1.9 3.5-.7 0-1.4-.2-1.9-.5 0 2.1 1.5 3.8 3.4 4.2-.3.1-.7.1-1.1.1-.3 0-.6 0-.8-.1.5 1.7 2.1 2.8 4 2.9-1.5 1.1-3.3 1.9-5.3 1.9-.3 0-.7 0-1-.1 1.9 1.2 4.1 1.9 6.5 1.9 7.8 0 12.1-6.5 12.1-12.1v-.6c.9-.4 1.6-1.2 2.2-2z"
            />
        </svg>
    </symbol>
    <symbol id="modules-social-youtube">
        <svg xmlns="http://www.w3.org/2000/svg" viewBox="0 0 30 30">
            <path d="M30 15c0 8.3-6.7 15-15 15S0 23.3 0 15 6.7 0 15 0s15 6.7 15 15zm-5.6 0c0-6.9 0-6.9-9.4-6.9s-9.4 0-9.4 6.9 0 6.9 9.4 6.9 9.4 0 9.4-6.9zm-11.9-3.7l6.3 3.8-6.3 3.8v-7.6z" />
        </svg>
    </symbol>
    <symbol id="modules-social-instagram">
        <svg xmlns="http://www.w3.org/2000/svg" viewBox="0 0 30 30">
            <path
                d="M15 30C6.7 30 0 23.3 0 15c0-1.1.1-2.1.3-3.1h7.2c-.4 1-.6 2-.6 3.1 0 4.5 3.6 8.1 8.1 8.1s8.1-3.6 8.1-8.1c0-1.1-.2-2.2-.6-3.1h7.2c.2 1 .3 2 .3 3.1 0 8.3-6.7 15-15 15zm5.9-20.6c-1.5-1.5-3.6-2.5-5.9-2.5s-4.4 1-5.9 2.5h-8C3.3 3.9 8.7 0 15 0s11.7 3.9 13.9 9.4h-8zm-.3 5.6c0 3.1-2.5 5.6-5.6 5.6-3.1 0-5.6-2.5-5.6-5.6 0-3.1 2.5-5.6 5.6-5.6 3.1 0 5.6 2.5 5.6 5.6z"
            />
        </svg>
    </symbol>
    <symbol id="modules-social-linkedin">
        <svg xmlns="http://www.w3.org/2000/svg" viewBox="0 0 30 30">
            <path
                d="M30 15c0 8.3-6.7 15-15 15S0 23.3 0 15 6.7 0 15 0s15 6.7 15 15zM11.3 7.8c0-1.2-1-2.2-2.5-2.2s-2.5.9-2.5 2.2c0 1.2 1 2.2 2.5 2.2s2.5-1 2.5-2.2zm-.7 4.1H6.9v10.6h3.8V11.9zm13.8 5c0-3.4-1.7-5.6-4.4-5.6-1.5 0-2.6.9-3.1 2.3l-.1-1.6H13c0 .4.1 2.5.1 2.5v8.1h3.8V17c0-1.5.7-2.5 1.8-2.5s1.9.6 1.9 2.5v5.6h3.8v-5.7z"
            />
        </svg>
    </symbol>
    <symbol id="modules-social-pinterest">
        <svg xmlns="http://www.w3.org/2000/svg" viewBox="0 0 30 30">
            <path
                d="M15 30c-1.5 0-2.9-.2-4.3-.6.6-.9 1.2-2 1.5-3.2.2-.7 1-4.1 1-4.1.5 1 2 1.9 3.7 1.9 4.8 0 8.1-4.4 8.1-10.3 0-4.4-3.8-8.6-9.5-8.6-7.1-.1-10.6 5-10.6 9.3 0 2.6 1 4.9 3.1 5.7.3.1.7 0 .8-.4.1-.2.2-.9.3-1.2.1-.4 0-.5-.2-.8-.6-.7-1-1.6-1-3 0-3.8 2.8-7.2 7.4-7.2 4 0 6.2 2.5 6.2 5.8 0 4.3-1.9 8-4.8 8-1.6 0-2.7-1.3-2.4-2.9.5-1.9 1.3-4 1.3-5.3 0-1.2-.7-2.3-2-2.3-1.6 0-2.9 1.7-2.9 3.9 0 1.4.5 2.4.5 2.4S9.5 24 9.3 25.3c-.3 1.1-.4 2.4-.3 3.5-5.3-2.4-9-7.7-9-13.8C0 6.7 6.7 0 15 0s15 6.7 15 15-6.7 15-15 15z"
            />
        </svg>
    </symbol>
    <symbol id="modules-globe-simple">
        <svg xmlns="http://www.w3.org/2000/svg" viewBox="197.3 314.6 90.6 90.6">
            <path
                d="M287.9 359.9c0 25-20.2 45.3-45.3 45.3s-45.3-20.2-45.3-45.3 20.2-45.3 45.3-45.3 45.3 20.3 45.3 45.3zm-22.7 13.2c0-7.3-5.9-13.2-13.2-13.2h-7.5c-5.7 0-9.4-2.8-9.4-6.6 0-2.6 2.1-4.7 4.7-4.7 3.8 0 3.9 3.8 6.6 3.8 2.1 0 3.8-1.7 3.8-3.8 0-3.7-1.8-5.6-3.6-7.3 1-2 3.5-7.2 3.6-14.8 0-.9-.6-1.8-1.6-1.9-2-.3-4-.5-6-.5-15.9.5-26.4 8.1-26.4 20.7 0 11.3 9.4 20.7 20.7 20.7h.3c-.2.9-.3 1.9-.3 2.8 0 5.8 4 10.7 9.4 11.9v13.5c0 1 .8 1.9 1.9 1.9 5.7.2 17-9.3 17-22.5z"
            />
        </svg>
    </symbol>
    <symbol id="modules-nav-arrow-down">
        <svg xmlns="http://www.w3.org/2000/svg" viewBox="0 0 10 5"><path d="M0,0l5,5l5-5H0z" /></svg>
    </symbol>
    <symbol id="modules-close">
        <svg xmlns="http://www.w3.org/2000/svg" viewBox="0 0 44 44">
            <path d="M39.196 43.3L1.154 5.256l3.89-3.89 38.04 38.043z" />
            <path d="M.54 39.413L38.58 1.37l3.89 3.89L4.428 43.302z" />
        </svg>
    </symbol>
</svg>


<svg xmlns="http://www.w3.org/2000/svg">
    <symbol id="logos-shopify-black">
        <svg xmlns="http://www.w3.org/2000/svg" viewBox="0 0 608 173.7">
            <path
                fill="#95BF47"
                d="M130.7 32.9c-.1-.9-.9-1.3-1.5-1.4-.6-.1-12.6-.2-12.6-.2s-10.1-9.8-11.1-10.8-2.9-.7-3.7-.5c0 0-1.9.6-5.1 1.6-.5-1.7-1.3-3.8-2.4-5.9-3.6-6.9-8.8-10.5-15.2-10.5-.4 0-.9 0-1.3.1-.2-.2-.4-.4-.6-.7-2.8-3-6.3-4.4-10.5-4.3-8.2.2-16.3 6.1-23 16.7-4.7 7.4-8.2 16.7-9.2 23.9-9.4 2.9-16 4.9-16.1 5-4.7 1.5-4.9 1.6-5.5 6.1C12.4 55.3 0 151.4 0 151.4l104.1 18 45.1-11.2S130.8 33.7 130.7 32.9zm-39.2-9.7c-2.4.7-5.1 1.6-8.1 2.5-.1-4.1-.6-9.9-2.5-14.9 6.3 1.2 9.3 8.2 10.6 12.4zM78 27.4c-5.5 1.7-11.4 3.5-17.4 5.4 1.7-6.4 4.9-12.8 8.8-17 1.5-1.6 3.5-3.3 5.9-4.3 2.3 4.7 2.7 11.4 2.7 15.9zM66.8 5.8c1.9 0 3.5.4 4.9 1.3-2.2 1.1-4.4 2.8-6.4 5-5.2 5.6-9.2 14.2-10.8 22.6-5 1.5-9.8 3-14.3 4.4 3-13.2 14-32.9 26.6-33.3z"
            />
            <path fill="#5E8E3E" d="M129.2 31.5c-.6-.1-12.6-.2-12.6-.2s-10.1-9.8-11.1-10.8c-.4-.4-.9-.6-1.4-.6v149.5l45.1-11.2S130.8 33.8 130.7 32.9c-.2-.9-.9-1.3-1.5-1.4z" />
            <path
                fill="#FFF"
                d="M79.1 54.7l-5.2 19.6s-5.8-2.7-12.8-2.2c-10.2.6-10.3 7-10.2 8.7.6 8.8 23.6 10.7 24.9 31.2 1 16.2-8.6 27.2-22.4 28.1-16.6 1-25.7-8.7-25.7-8.7l3.5-14.9s9.2 6.9 16.5 6.5c4.8-.3 6.5-4.2 6.3-7-.7-11.4-19.5-10.8-20.7-29.5-1-15.8 9.4-31.8 32.3-33.3 9-.8 13.5 1.5 13.5 1.5z"
            />
            <g>
                <path
                    d="M210.3 96.5c-5.2-2.8-7.9-5.2-7.9-8.5 0-4.2 3.7-6.9 9.6-6.9 6.8 0 12.8 2.8 12.8 2.8l4.8-14.6s-4.4-3.4-17.3-3.4c-18 0-30.5 10.3-30.5 24.8 0 8.2 5.8 14.5 13.6 19 6.3 3.6 8.5 6.1 8.5 9.9 0 3.9-3.1 7-9 7-8.7 0-16.9-4.5-16.9-4.5l-5.1 14.6s7.6 5.1 20.3 5.1c18.5 0 31.8-9.1 31.8-25.5.1-8.9-6.6-15.2-14.7-19.8zM284.1 65.7c-9.1 0-16.3 4.3-21.8 10.9l-.3-.1 7.9-41.4h-20.6l-20 105.3h20.6l6.9-36c2.7-13.6 9.7-22 16.3-22 4.6 0 6.4 3.1 6.4 7.6 0 2.8-.3 6.3-.9 9.1l-7.8 41.2h20.6l8.1-42.6c.9-4.5 1.5-9.9 1.5-13.4 0-11.5-6.2-18.6-16.9-18.6zM347.6 65.7c-24.8 0-41.2 22.4-41.2 47.4 0 16 9.9 28.8 28.4 28.8 24.3 0 40.8-21.8 40.8-47.4-.1-14.7-8.8-28.8-28-28.8zm-10.2 60.4c-7 0-10-6-10-13.4 0-11.8 6.1-31.1 17.3-31.1 7.3 0 9.7 6.3 9.7 12.4 0 12.7-6.1 32.1-17 32.1zM428.2 65.7c-13.9 0-21.8 12.2-21.8 12.2h-.3l1.2-11.1h-18.2c-.9 7.5-2.5 18.8-4.2 27.3l-14.3 75.4h20.6l5.7-30.5h.4s4.2 2.7 12.1 2.7c24.2 0 40-24.8 40-49.9.1-13.7-6.1-26.1-21.2-26.1zm-19.7 60.7c-5.4 0-8.5-3-8.5-3l3.4-19.3c2.4-12.8 9.1-21.4 16.3-21.4 6.3 0 8.2 5.8 8.2 11.4 0 13.3-7.9 32.3-19.4 32.3zM478.9 36.2c-6.6 0-11.8 5.2-11.8 12 0 6.1 3.9 10.3 9.7 10.3h.3c6.4 0 12-4.3 12.1-12 0-6-4-10.3-10.3-10.3zM450.1 140.4h20.6l14-73h-20.8zM537.1 67.2h-14.3l.7-3.4c1.2-7 5.4-13.3 12.2-13.3 3.7 0 6.6 1 6.6 1l4-16.1s-3.6-1.8-11.2-1.8c-7.3 0-14.6 2.1-20.2 6.9-7 6-10.3 14.6-12 23.3l-.6 3.4h-9.6l-3 15.5h9.6l-10.9 57.7H509l10.9-57.7h14.2l3-15.5zM586.7 67.4s-12.9 32.5-18.7 50.2h-.3c-.4-5.7-5.1-50.2-5.1-50.2H541l12.4 67.1c.3 1.5.1 2.4-.4 3.4-2.4 4.6-6.4 9.1-11.2 12.4-3.9 2.8-8.2 4.6-11.7 5.8l5.7 17.5c4.2-.9 12.8-4.3 20.2-11.2 9.4-8.8 18.1-22.4 27-40.9l25.2-54.1h-21.5z"
                />
            </g>
        </svg>
    </symbol>
    <symbol id="modules-caret-right">
        <svg xmlns="http://www.w3.org/2000/svg" viewBox="-242.1 245.6 6.6 10.3"><path d="M-235.6 250.7l-5.1 5.2-1.4-1.4 3.7-3.8-3.7-3.7 1.4-1.4" /></svg>
    </symbol>
    <symbol id="modules-caret-down">
        <svg xmlns="http://www.w3.org/2000/svg" baseProfile="tiny" viewBox="0 0 10.289 6.563"><path d="M5.212 6.563L0 1.423 1.404 0l3.788 3.735L8.865.01l1.424 1.404" /></svg>
    </symbol>
    <symbol id="modules-mobile-hamburger">
        <svg xmlns="http://www.w3.org/2000/svg" viewBox="0 0 20 20">
            <path d="M19 11H1c-.552 0-1-.447-1-1s.448-1 1-1h18c.552 0 1 .447 1 1s-.448 1-1 1zm0-7H1c-.552 0-1-.447-1-1s.448-1 1-1h18c.552 0 1 .447 1 1s-.448 1-1 1zm0 14H1c-.552 0-1-.447-1-1s.448-1 1-1h18c.552 0 1 .447 1 1s-.448 1-1 1z" />
        </svg>
    </symbol>
    <symbol id="modules-cancel">
        <svg xmlns="http://www.w3.org/2000/svg" viewBox="0 0 20 20">
            <path
                d="M11.414 10l6.293-6.293c.39-.39.39-1.023 0-1.414s-1.023-.39-1.414 0L10 8.586 3.707 2.293c-.39-.39-1.023-.39-1.414 0s-.39 1.023 0 1.414L8.586 10l-6.293 6.293c-.39.39-.39 1.023 0 1.414.195.195.45.293.707.293s.512-.098.707-.293L10 11.414l6.293 6.293c.195.195.45.293.707.293s.512-.098.707-.293c.39-.39.39-1.023 0-1.414L11.414 10z"
            />
        </svg>
    </symbol>
    <symbol id="modules-nav-external-indicator">
        <svg xmlns="http://www.w3.org/2000/svg" viewBox="0 0 7 7"><path d="M7,7V0H0L7,7z" /></svg>
    </symbol>
    <symbol id="modules-close">
        <svg xmlns="http://www.w3.org/2000/svg" viewBox="0 0 44 44">
            <path d="M39.196 43.3L1.154 5.256l3.89-3.89 38.04 38.043z" />
            <path d="M.54 39.413L38.58 1.37l3.89 3.89L4.428 43.302z" />
        </svg>
    </symbol>
    <symbol id="snap-logo">
        <svg xmlns="http://www.w3.org/2000/svg" fill="none" viewBox="0 0 17 8">
            <path
                fill="#00284C"
                d="M3.838 3.226a3.645 3.645 0 01-.3.726 2.131 2.131 0 01-.474.6c-.2.17-.442.301-.727.396-.274.095-.6.137-.98.126-.294-.01-.52-.068-.679-.174a.808.808 0 01-.332-.426A1.307 1.307 0 01.3 3.858c.021-.232.074-.474.158-.727.01-.01.016-.027.016-.048l.174-.41a.362.362 0 00.031-.111c-.01-.021-.005-.058.016-.11.01-.022.042-.032.095-.032l.016.016h.063l.031.031h.016c.084.053.221.132.411.237.19.095.332.21.427.348v.016c.01 0 .02.015.031.047.01.032.006.068-.016.11 0 .022-.005.037-.015.048l-.016.032a.44.44 0 00-.063.11l-.064.08c-.063.136-.12.278-.173.426a3.319 3.319 0 00-.095.379.796.796 0 00.016.284c.031.074.084.111.158.111.22 0 .41-.053.568-.158.169-.116.311-.258.427-.427.116-.168.21-.347.284-.537.074-.19.132-.363.174-.521.063-.264.042-.453-.063-.569a.783.783 0 00-.458-.253 2.226 2.226 0 00-.68-.063c-.263.01-.526.016-.79.016-.042 0-.063-.021-.063-.063l.032-.016c.031-.169.042-.327.031-.474 0-.148-.01-.269-.031-.364-.01-.02-.005-.042.016-.063.031-.021.047-.037.047-.047A3.11 3.11 0 012.037.524c.39-.158.795-.269 1.217-.332.21.01.39.142.537.395a.86.86 0 01.031.237.677.677 0 01-.237.506l-.063.031a.23.23 0 01-.142.016c-.01 0-.016-.021-.016-.063a.14.14 0 01.016-.063c0-.022-.032-.058-.095-.111a.58.58 0 00-.268-.126c-.116-.032-.274-.032-.474 0-.19.031-.422.126-.696.284.19 0 .417.037.68.11.263.074.505.19.727.348.22.148.395.342.521.585.126.242.148.537.063.885zM7.294 4.569c.274-.116.49-.29.647-.522.158-.232.28-.463.364-.695.095-.274.153-.553.174-.837a.75.75 0 01.19.158c.052.052.089.105.11.158a.497.497 0 01.063.158c-.063.39-.168.71-.316.963-.137.253-.279.453-.427.6a2.15 2.15 0 01-.553.412 3.175 3.175 0 01-.884-.332c-.232-.137-.369-.31-.411-.522-.063-.337-.058-.742.016-1.216.084-.485.184-.943.3-1.375a5.18 5.18 0 00-.648 1.027c-.179.38-.332.748-.458 1.106a9.312 9.312 0 00-.285.9c-.063.254-.1.396-.11.427 0 .053-.027.08-.08.08a2.69 2.69 0 00-.331-.064 2.1 2.1 0 01-.458-.174c-.032-.01-.048-.031-.048-.063v-.031a4.572 4.572 0 01.016-.838c.021-.326.063-.669.127-1.027.063-.369.137-.742.22-1.122.085-.39.17-.758.254-1.106.01-.052.005-.09-.016-.11-.01-.021-.01-.058 0-.11.01-.033.042-.048.095-.048h.079c.01.01.02.015.031.015h.016c.095.032.221.085.38.159.168.063.315.152.442.268l.015.016c.011 0 .027.016.048.047.02.021.026.058.016.11 0 .022-.006.038-.016.048v.032a.66.66 0 00-.032.11c-.063.211-.126.432-.19.664l-.157.695c.242-.505.49-.932.742-1.28.264-.347.469-.605.616-.774l.016-.015.095-.095a.196.196 0 01.142-.064c.032 0 .063.006.095.016.105.042.221.095.348.158.137.064.258.143.363.237.021.01.042.032.063.064.021.031.021.084 0 .158v.031a10.831 10.831 0 00-.648 2.639c-.042.368-.047.69-.015.964z"
            />
            <path
                fill="#00284C"
                d="M12.621 2.578a.753.753 0 01.19.158c.042.042.073.09.095.142a.498.498 0 01.063.158c-.053.39-.153.716-.3.98-.137.252-.28.453-.427.6a2.15 2.15 0 01-.553.41 3.432 3.432 0 01-.9-.331c-.232-.147-.364-.321-.396-.521a1.464 1.464 0 01-.031-.316c0-.116.005-.232.015-.348l-.19.506a7.59 7.59 0 01-.157.458c-.053.126-.1.237-.142.332a.732.732 0 01-.095.158 2.193 2.193 0 01-.632.031 1.823 1.823 0 01-.506-.142c-.168-.074-.295-.216-.379-.427a2.502 2.502 0 01-.032-.41c0-.127.006-.28.016-.459 0-.179.016-.374.048-.584.042-.285.105-.58.19-.885a5.55 5.55 0 01.331-.837c.126-.253.269-.459.427-.617a.85.85 0 01.569-.268c.136-.01.273 0 .41.031.116.021.248.058.395.11.148.054.29.138.427.254 0 .01.005.02.016.031V.84c-.021.02-.037.031-.048.031h-.031c-.095 0-.21.016-.348.048a.676.676 0 00-.363.205 2.23 2.23 0 00-.427.648 5.472 5.472 0 00-.316.885 5.535 5.535 0 00-.142.932c-.021.316-.01.606.032.869.147-.2.294-.437.442-.711.126-.242.268-.542.427-.9.158-.359.31-.785.458-1.28.02-.095.042-.174.063-.237.021-.074.037-.137.047-.19a.182.182 0 00.032-.047.11.11 0 01.11-.032c.296.084.5.174.617.269.126.084.21.158.253.22a.14.14 0 00.015.064v.063c.01.021.01.048 0 .08a11.74 11.74 0 00-.316 1.279 9.864 9.864 0 00-.126.885 3.164 3.164 0 00-.016.695c.274-.116.49-.29.648-.521.158-.232.28-.459.363-.68.095-.263.153-.542.174-.837z"
            />
            <path
                fill="#00284C"
                d="M13.96 1.772c.147-.274.3-.532.458-.774a3.55 3.55 0 01.474-.57.2.2 0 01.094-.047.35.35 0 01.111-.015.23.23 0 01.142.015c.116.043.242.111.38.206.147.095.279.237.395.427a8.454 8.454 0 01-.332 1.817 6.306 6.306 0 01-.269.695 3.006 3.006 0 01-.363.648c-.137.2-.3.374-.49.521a1.632 1.632 0 01-.616.316c-.021.01-.037.01-.048 0h-.031c-.01 0-.021-.005-.032-.016a1.849 1.849 0 01-.253-.221.746.746 0 01-.205-.38c-.01-.03-.005-.057.016-.078l.031-.032c.063-.031.163-.1.3-.205.148-.116.3-.295.459-.537.158-.243.31-.559.458-.948.147-.39.258-.87.332-1.438-.232.295-.448.61-.648.948a14.94 14.94 0 00-.553.964c-.18.347-.322.695-.427 1.042-.147.6-.279 1.201-.395 1.802-.116.61-.184 1.169-.205 1.674 0 .022-.005.037-.016.048-.021.02-.042.031-.063.031a6.766 6.766 0 00-.316-.079 1.565 1.565 0 01-.474-.158c-.032-.01-.048-.031-.048-.063v-.031a4.58 4.58 0 01.032-.9c.032-.37.084-.775.158-1.218.074-.431.163-.88.269-1.343.094-.474.19-.921.284-1.343l.284-1.137.222-.79c.02-.095.02-.153 0-.174-.021-.032-.021-.074 0-.127.01-.042.047-.063.11-.063h.08c.01.01.02.016.03.016.096.032.227.084.396.158.168.074.316.169.442.285l.063.063c.032.031.037.084.016.158l-.253.853z"
            />
        </svg>
    </symbol>
    <symbol id="play-solid">
        <svg viewBox="0 0 20 20" xmlns="http://www.w3.org/2000/svg">
            <path
                d="m4.33 1c-.73453872 0-1.33.59546128-1.33 1.33v15.34c0 .7345387.59546128 1.33 1.33 1.33.23645682-.0012208.46810271-.0669114.67-.19l12.8-7.67c.4001633-.2404682.6449453-.6731428.6449453-1.14 0-.46685721-.244782-.89953177-.6449453-1.14l-12.8-7.67c-.20189729-.1230886-.43354318-.18877923-.67-.19z"
            />
        </svg>
    </symbol>
    <symbol id="spot-drag-and-drop">
        <svg xmlns="http://www.w3.org/2000/svg" viewBox="0 0 45 45">
            <path
                d="M41 6a3 3 0 0 0-3-3H7a3 3 0 0 0-3 3v31a3 3 0 0 0 3 3h6a1 1 0 0 0 1-1v-1a1 1 0 0 0-1-1H7V12h31v2a1 1 0 0 0 1 1h1a1 1 0 0 0 1-1V9 6zM11 9H7V6h4zm3 0V6h24v3zm27 12v3a1 1 0 0 1-1 1h-1a1 1 0 0 1-1-1v-2h-3v-3h4a2 2 0 0 1 2 2zm-.87 10.67L27.5 25.81a1.5 1.5 0 0 0-2.1 1.68l3.13 14.33A1.5 1.5 0 0 0 29.79 43H30a1.5 1.5 0 0 0 1.33-.8l3.07-5.8 5.61-2a1.5 1.5 0 0 0 .14-2.78zm-7.29 2.1a1.5 1.5 0 0 0-.83.71l-1.43 2.69L29 29.81l6.53 3zM21 33h-3v-5h3zm3 7v1a1 1 0 0 1-1 1h-3a2 2 0 0 1-2-2v-4h3v3h2a1 1 0 0 1 1 1zm8-18h-5v-3h5zm-12-3h4v3h-3v3h-3v-4a2 2 0 0 1 2-2z"
            />
        </svg>
    </symbol>
    <symbol id="spot-online-store">
        <svg xmlns="http://www.w3.org/2000/svg" viewBox="0 0 45 45">
            <path
                d="M41.75,8.67,38,3.11A2.5,2.5,0,0,0,36,2H9A2.5,2.5,0,0,0,7,3.11L3.25,8.67A1.5,1.5,0,0,0,3,9.5v3a7.48,7.48,0,0,0,3,6H6v13A3.5,3.5,0,0,0,9.5,35H15v2.5A2.5,2.5,0,0,1,12.5,40H12a1.5,1.5,0,0,0,0,3H33a1.5,1.5,0,0,0,0-3h-.5A2.5,2.5,0,0,1,30,37.5V35h5.5A3.5,3.5,0,0,0,39,31.5v-13h0a7.48,7.48,0,0,0,3-6v-3A1.5,1.5,0,0,0,41.75,8.67ZM9.3,5H35.7l2.66,4H6.64Zm17.79,7a1.64,1.64,0,0,0-.09.5,4.5,4.5,0,0,1-9,0,1.64,1.64,0,0,0-.09-.5ZM6,12h9.09a1.64,1.64,0,0,0-.09.5,4.5,4.5,0,0,1-9,0ZM27.61,40H17.39A5.4,5.4,0,0,0,18,37.5V35h9v2.5A5.4,5.4,0,0,0,27.61,40ZM36,31.5a.5.5,0,0,1-.5.5H9.5a.5.5,0,0,1-.5-.5V19.85a7.41,7.41,0,0,0,1.5.15,7.49,7.49,0,0,0,6-3,7.47,7.47,0,0,0,12,0,7.49,7.49,0,0,0,6,3,7.41,7.41,0,0,0,1.5-.15ZM34.5,17A4.51,4.51,0,0,1,30,12.5a1.64,1.64,0,0,0-.09-.5H39v.5A4.51,4.51,0,0,1,34.5,17Z"
            />
        </svg>
    </symbol>
    <symbol id="spot-inventory-synced">
        <svg xmlns="http://www.w3.org/2000/svg" viewBox="0 0 45 45">
            <path
                d="M42.5 11.82v28a1.5 1.5 0 0 1-3 0v-27L23 5.46 6.5 12.8v27a1.5 1.5 0 0 1-3 0v-28a1.5 1.5 0 0 1 .89-1.37l18-8a1.5 1.5 0 0 1 1.22 0l18 8a1.5 1.5 0 0 1 .89 1.39zM32.5 28a1.5 1.5 0 0 0-1.5 1.5A8.48 8.48 0 0 1 17.05 36h2.45a1.5 1.5 0 0 0 0-3h-6a1.5 1.5 0 0 0-1.5 1.5v6a1.5 1.5 0 0 0 3 0v-2.32a11.47 11.47 0 0 0 19-8.68 1.5 1.5 0 0 0-1.5-1.5zM14 29.5A8.48 8.48 0 0 1 27.95 23H25.5a1.5 1.5 0 0 0 0 3h6a1.5 1.5 0 0 0 1.5-1.5v-6a1.5 1.5 0 0 0-3 0v2.32a11.47 11.47 0 0 0-19 8.68 1.5 1.5 0 0 0 3 0z"
            />
        </svg>
    </symbol>
    <symbol id="spot-group">
        <svg xmlns="http://www.w3.org/2000/svg" viewBox="0 0 45 45">
            <path
                d="M12.5 21A6.5 6.5 0 1 0 6 14.5a6.5 6.5 0 0 0 6.5 6.5zm0-10A3.5 3.5 0 1 1 9 14.5a3.5 3.5 0 0 1 3.5-3.5zM30 21a8 8 0 1 0-8-8 8 8 0 0 0 8 8zm0-13a5 5 0 1 1-5 5 5 5 0 0 1 5-5zm13 25.5v4a1.5 1.5 0 0 1-3 0v-4c0-3.77-2.52-6.5-6-6.5h-7.5a6.51 6.51 0 0 0-6.5 6.5v4a1.5 1.5 0 0 1-3 0v-4a9.51 9.51 0 0 1 9.5-9.5H34c5.13 0 9 4.08 9 9.5zm-27-8a1.5 1.5 0 0 1-1.5 1.5h-4A5.51 5.51 0 0 0 5 32.5V36a1.5 1.5 0 0 1-3 0v-3.5a8.51 8.51 0 0 1 8.5-8.5h4a1.5 1.5 0 0 1 1.5 1.5z"
            />
        </svg>
    </symbol>
    <symbol id="modules-play">
        <svg xmlns="http://www.w3.org/2000/svg" viewBox="0 0 20 20">
            <path d="M5,3.51,15.82,10,5,16.49v-13M4.33,1A1.33,1.33,0,0,0,3,2.33V17.67A1.33,1.33,0,0,0,4.33,19,1.3,1.3,0,0,0,5,18.81L17.8,11.14a1.33,1.33,0,0,0,0-2.28L5,1.19A1.3,1.3,0,0,0,4.33,1Z" />
        </svg>
    </symbol>
    <symbol id="modules-pause">
        <svg xmlns="http://www.w3.org/2000/svg" viewBox="0 0 20 20">
            <path d="M5.5,19a1,1,0,0,1-1-1V2a1,1,0,0,1,2,0V18A1,1,0,0,1,5.5,19Z" />
            <path d="M14.51,19a1,1,0,0,1-1-1V2a1,1,0,0,1,2,0V18A1,1,0,0,1,14.51,19Z" />
        </svg>
    </symbol>
    <symbol id="modules-arrow-right">
        <svg xmlns="http://www.w3.org/2000/svg" viewBox="0 0 20 20">
            <path
                d="M17.707 9.293l-5-5c-.39-.39-1.023-.39-1.414 0s-.39 1.023 0 1.414L14.586 9H3c-.553 0-1 .448-1 1s.447 1 1 1h11.586l-3.293 3.293c-.39.39-.39 1.023 0 1.414.195.195.45.293.707.293s.512-.098.707-.293l5-5c.39-.39.39-1.023 0-1.414z"
            />
        </svg>
    </symbol>
    <symbol id="logos-shopify-bag-color">
        <svg xmlns="http://www.w3.org/2000/svg" viewBox="0 0 34.6 39.21">
            <path
                fill="#95bf47"
                d="M30.3 7.55a.37.37 0 0 0-.3-.32l-3-.05s-2.34-2.27-2.56-2.5a1 1 0 0 0-.86-.11l-1.17.37a7.8 7.8 0 0 0-.57-1.38 3.92 3.92 0 0 0-3.51-2.43H18L17.91 1a3.1 3.1 0 0 0-2.45-1c-1.9.05-3.79 1.43-5.32 3.86A15.26 15.26 0 0 0 8 9.4l-3.73 1.16c-1.1.35-1.14.38-1.28 1.41C2.88 12.76 0 35 0 35l24.14 4.18L34.6 36.6zm-9.08-2.24l-1.87.58a10.2 10.2 0 0 0-.58-3.46c1.45.27 2.15 1.9 2.45 2.88zm-3.13 1l-4 1.25a9.63 9.63 0 0 1 2-3.95 4.23 4.23 0 0 1 1.37-1 9.05 9.05 0 0 1 .63 3.67zm-2.59-5a1.78 1.78 0 0 1 1.14.3 5.62 5.62 0 0 0-1.47 1.14A11.18 11.18 0 0 0 12.67 8L9.36 9c.64-3.07 3.21-7.65 6.14-7.73z"
            />
            <path fill="#5e8e3e" d="M30 7.23l-3-.05s-2.34-2.27-2.56-2.5a.59.59 0 0 0-.33-.15v34.68l10.46-2.6L30.3 7.55a.36.36 0 0 0-.3-.32z" />
            <path
                fill="#fff"
                d="M18.34 12.61l-1.21 4.55a6.93 6.93 0 0 0-3-.52c-2.35.15-2.38 1.64-2.36 2 .13 2 5.48 2.47 5.78 7.24.24 3.74-2 6.31-5.19 6.51a7.8 7.8 0 0 1-6-2l.82-3.47s2.12 1.6 3.83 1.5a1.51 1.51 0 0 0 1.48-1.62c-.17-2.65-4.52-2.49-4.8-6.85-.23-3.67 2.18-7.38 7.49-7.72a6.56 6.56 0 0 1 3.16.38z"
            />
        </svg>
    </symbol>
    <symbol id="modules-search">
        <svg xmlns="http://www.w3.org/2000/svg" viewBox="0 0 16 16">
            <path
                d="M15.552 13.62L11.27 9.333c.585-.936.925-2.046.925-3.23C12.195 2.73 9.465 0 6.098 0 2.73 0 0 2.732 0 6.103c0 3.37 2.73 6.1 6.098 6.1 1.19 0 2.304-.343 3.244-.935l4.28 4.283c.295.3.68.45 1.063.45h.005c.333 0 .674-.12.93-.373.258-.26.38-.6.38-.94 0-.382-.154-.768-.448-1.063zM9.498 6.102c-.003 1.874-1.526 3.4-3.4 3.402C4.224 9.5 2.7 7.976 2.698 6.102c.003-1.875 1.526-3.4 3.4-3.404 1.874.003 3.397 1.528 3.4 3.403z"
            />
        </svg>
    </symbol>
    <symbol id="modules-social-facebook">
        <svg xmlns="http://www.w3.org/2000/svg" viewBox="0 0 30 30">
            <path d="M15.6 30V19.4h5V15h-5v-3.1c0-1 .6-1.9 1.3-1.9h3.8V5.6h-3.8c-3.1 0-5.6 2.8-5.6 6.3V15H7.5v4.4h3.8v10.1C4.8 27.9 0 22 0 15 0 6.7 6.7 0 15 0s15 6.7 15 15c0 8.1-6.4 14.7-14.4 15z" />
        </svg>
    </symbol>
    <symbol id="modules-social-twitter">
        <svg xmlns="http://www.w3.org/2000/svg" viewBox="0 0 30 30">
            <path
                d="M30 15c0 8.3-6.7 15-15 15S0 23.3 0 15 6.7 0 15 0s15 6.7 15 15zm-3.7-5.5c-.8.3-1.6.6-2.5.7.9-.5 1.5-1.4 1.8-2.4-.8.5-1.7.8-2.7 1-.8-.8-1.9-1.4-3.1-1.4-2.4 0-4.2 1.9-4.2 4.3 0 .3 0 .7.1 1-3.5-.2-6.7-1.9-8.8-4.5-.3.7-.6 1.4-.6 2.2 0 1.5.7 2.8 1.9 3.5-.7 0-1.4-.2-1.9-.5 0 2.1 1.5 3.8 3.4 4.2-.3.1-.7.1-1.1.1-.3 0-.6 0-.8-.1.5 1.7 2.1 2.8 4 2.9-1.5 1.1-3.3 1.9-5.3 1.9-.3 0-.7 0-1-.1 1.9 1.2 4.1 1.9 6.5 1.9 7.8 0 12.1-6.5 12.1-12.1v-.6c.9-.4 1.6-1.2 2.2-2z"
            />
        </svg>
    </symbol>
    <symbol id="modules-social-youtube">
        <svg xmlns="http://www.w3.org/2000/svg" viewBox="0 0 30 30">
            <path d="M30 15c0 8.3-6.7 15-15 15S0 23.3 0 15 6.7 0 15 0s15 6.7 15 15zm-5.6 0c0-6.9 0-6.9-9.4-6.9s-9.4 0-9.4 6.9 0 6.9 9.4 6.9 9.4 0 9.4-6.9zm-11.9-3.7l6.3 3.8-6.3 3.8v-7.6z" />
        </svg>
    </symbol>
    <symbol id="modules-social-instagram">
        <svg xmlns="http://www.w3.org/2000/svg" viewBox="0 0 30 30">
            <path
                d="M15 30C6.7 30 0 23.3 0 15c0-1.1.1-2.1.3-3.1h7.2c-.4 1-.6 2-.6 3.1 0 4.5 3.6 8.1 8.1 8.1s8.1-3.6 8.1-8.1c0-1.1-.2-2.2-.6-3.1h7.2c.2 1 .3 2 .3 3.1 0 8.3-6.7 15-15 15zm5.9-20.6c-1.5-1.5-3.6-2.5-5.9-2.5s-4.4 1-5.9 2.5h-8C3.3 3.9 8.7 0 15 0s11.7 3.9 13.9 9.4h-8zm-.3 5.6c0 3.1-2.5 5.6-5.6 5.6-3.1 0-5.6-2.5-5.6-5.6 0-3.1 2.5-5.6 5.6-5.6 3.1 0 5.6 2.5 5.6 5.6z"
            />
        </svg>
    </symbol>
    <symbol id="modules-social-linkedin">
        <svg xmlns="http://www.w3.org/2000/svg" viewBox="0 0 30 30">
            <path
                d="M30 15c0 8.3-6.7 15-15 15S0 23.3 0 15 6.7 0 15 0s15 6.7 15 15zM11.3 7.8c0-1.2-1-2.2-2.5-2.2s-2.5.9-2.5 2.2c0 1.2 1 2.2 2.5 2.2s2.5-1 2.5-2.2zm-.7 4.1H6.9v10.6h3.8V11.9zm13.8 5c0-3.4-1.7-5.6-4.4-5.6-1.5 0-2.6.9-3.1 2.3l-.1-1.6H13c0 .4.1 2.5.1 2.5v8.1h3.8V17c0-1.5.7-2.5 1.8-2.5s1.9.6 1.9 2.5v5.6h3.8v-5.7z"
            />
        </svg>
    </symbol>
    <symbol id="modules-social-pinterest">
        <svg xmlns="http://www.w3.org/2000/svg" viewBox="0 0 30 30">
            <path
                d="M15 30c-1.5 0-2.9-.2-4.3-.6.6-.9 1.2-2 1.5-3.2.2-.7 1-4.1 1-4.1.5 1 2 1.9 3.7 1.9 4.8 0 8.1-4.4 8.1-10.3 0-4.4-3.8-8.6-9.5-8.6-7.1-.1-10.6 5-10.6 9.3 0 2.6 1 4.9 3.1 5.7.3.1.7 0 .8-.4.1-.2.2-.9.3-1.2.1-.4 0-.5-.2-.8-.6-.7-1-1.6-1-3 0-3.8 2.8-7.2 7.4-7.2 4 0 6.2 2.5 6.2 5.8 0 4.3-1.9 8-4.8 8-1.6 0-2.7-1.3-2.4-2.9.5-1.9 1.3-4 1.3-5.3 0-1.2-.7-2.3-2-2.3-1.6 0-2.9 1.7-2.9 3.9 0 1.4.5 2.4.5 2.4S9.5 24 9.3 25.3c-.3 1.1-.4 2.4-.3 3.5-5.3-2.4-9-7.7-9-13.8C0 6.7 6.7 0 15 0s15 6.7 15 15-6.7 15-15 15z"
            />
        </svg>
    </symbol>
    <symbol id="modules-globe-simple">
        <svg xmlns="http://www.w3.org/2000/svg" viewBox="197.3 314.6 90.6 90.6">
            <path
                d="M287.9 359.9c0 25-20.2 45.3-45.3 45.3s-45.3-20.2-45.3-45.3 20.2-45.3 45.3-45.3 45.3 20.3 45.3 45.3zm-22.7 13.2c0-7.3-5.9-13.2-13.2-13.2h-7.5c-5.7 0-9.4-2.8-9.4-6.6 0-2.6 2.1-4.7 4.7-4.7 3.8 0 3.9 3.8 6.6 3.8 2.1 0 3.8-1.7 3.8-3.8 0-3.7-1.8-5.6-3.6-7.3 1-2 3.5-7.2 3.6-14.8 0-.9-.6-1.8-1.6-1.9-2-.3-4-.5-6-.5-15.9.5-26.4 8.1-26.4 20.7 0 11.3 9.4 20.7 20.7 20.7h.3c-.2.9-.3 1.9-.3 2.8 0 5.8 4 10.7 9.4 11.9v13.5c0 1 .8 1.9 1.9 1.9 5.7.2 17-9.3 17-22.5z"
            />
        </svg>
    </symbol>
    <symbol id="modules-nav-arrow-down">
        <svg xmlns="http://www.w3.org/2000/svg" viewBox="0 0 10 5"><path d="M0,0l5,5l5-5H0z" /></svg>
    </symbol>
</svg>

<svg xmlns="http://www.w3.org/2000/svg">
    <symbol id="play-solid">
        <svg viewBox="0 0 20 20" xmlns="http://www.w3.org/2000/svg">
            <path d="m4.33 1c-.73453872 0-1.33.59546128-1.33 1.33v15.34c0 .7345387.59546128 1.33 1.33 1.33.23645682-.0012208.46810271-.0669114.67-.19l12.8-7.67c.4001633-.2404682.6449453-.6731428.6449453-1.14 0-.46685721-.244782-.89953177-.6449453-1.14l-12.8-7.67c-.20189729-.1230886-.43354318-.18877923-.67-.19z" />
        </svg>
    </symbol>
    <symbol id="modules-arrow-right">
        <svg xmlns="http://www.w3.org/2000/svg" viewBox="0 0 20 20">
            <path d="M17.707 9.293l-5-5c-.39-.39-1.023-.39-1.414 0s-.39 1.023 0 1.414L14.586 9H3c-.553 0-1 .448-1 1s.447 1 1 1h11.586l-3.293 3.293c-.39.39-.39 1.023 0 1.414.195.195.45.293.707.293s.512-.098.707-.293l5-5c.39-.39.39-1.023 0-1.414z" />
        </svg>
    </symbol>
    <symbol id="spot-customer-support">
        <svg xmlns="http://www.w3.org/2000/svg" viewBox="0 0 45 45">
            <path d="M38.5 16.25V14A12.51 12.51 0 0 0 26 1.5h-6A12.51 12.51 0 0 0 7.5 14v2A5 5 0 0 0 3 21v5a5 5 0 0 0 5 5h4a2 2 0 0 0 2-2V18a2 2 0 0 0-2-2h-1.5v-2A9.51 9.51 0 0 1 20 4.5h6a9.51 9.51 0 0 1 9.5 9.5v2H33a2 2 0 0 0-2 2v11a2 2 0 0 0 2 2h2v3.5a1.5 1.5 0 0 1-1.5 1.5H29v-1.5a1.5 1.5 0 0 0-1.5-1.5h-6a3.5 3.5 0 0 0-3.5 3.5v2a3.5 3.5 0 0 0 3.5 3.5h6a1.5 1.5 0 0 0 1.5-1.5V39h4.5a4.5 4.5 0 0 0 4.5-4.5v-3.6a5 5 0 0 0 4-4.9v-5a5 5 0 0 0-3.5-4.75zM11 19v9H8a2 2 0 0 1-2-2v-5a2 2 0 0 1 2-2zm15 20h-4.5a.5.5 0 0 1-.5-.5v-2a.5.5 0 0 1 .5-.5H26zm13-13a2 2 0 0 1-2 2h-3v-9h3a2 2 0 0 1 2 2z" />
        </svg>
    </symbol>
    <symbol id="spot-boost">
        <svg xmlns="http://www.w3.org/2000/svg" viewBox="0 0 45 45">
            <path d="M31 18h-3.59L26 41.59A1.5 1.5 0 0 1 24.5 43h-.09A1.5 1.5 0 0 1 23 41.41l1.5-25A1.5 1.5 0 0 1 26 15h3l-7.56-9.68L14 15h3a1.5 1.5 0 0 1 1.5 1.41l1.5 25a1.5 1.5 0 1 1-3 .18L15.59 18H12a2 2 0 0 1-1.64-3.15L19.44 3a2.48 2.48 0 0 1 2-1 2.51 2.51 0 0 1 2 1l9.15 11.74a2 2 0 0 1 .18 2.13A2 2 0 0 1 31 18zm2.72 5A1.5 1.5 0 0 0 32 24.24l-3 17A1.5 1.5 0 0 0 30.24 43h.26a1.5 1.5 0 0 0 1.5-1.24l3-17A1.5 1.5 0 0 0 33.76 23zM12 29.25a1.5 1.5 0 1 0-3 .49l2 12A1.5 1.5 0 0 0 12.5 43h.25A1.5 1.5 0 0 0 14 41.25z" />
        </svg>
    </symbol>
    <symbol id="spot-marketing">
        <svg xmlns="http://www.w3.org/2000/svg" viewBox="0 0 45 45">
            <path d="M41.87 2.05a1.51 1.51 0 0 0-1.69.73C40.05 3 36.94 8.5 29 8.5H13a11 11 0 0 0-3.61 21.38c2.79 1.47 5.9 8.06 6.54 11.11a2.51 2.51 0 0 0 2.45 2h5.12A2.5 2.5 0 0 0 26 40.5v-10h3c7.94 0 11.05 5.48 11.18 5.71A1.5 1.5 0 0 0 43 35.5v-32a1.5 1.5 0 0 0-1.13-1.45zM5 19.5a8 8 0 0 1 8-8h5v16h-5a8 8 0 0 1-8-8zM23 40h-4.22a30.91 30.91 0 0 0-4.51-9.5H23zm17-8.56a16.24 16.24 0 0 0-11-3.94h-8v-16h8a16.24 16.24 0 0 0 11-3.94z" />
        </svg>
    </symbol>
    <symbol id="modules-social-facebook">
        <svg xmlns="http://www.w3.org/2000/svg" viewBox="0 0 30 30">
            <path d="M15.6 30V19.4h5V15h-5v-3.1c0-1 .6-1.9 1.3-1.9h3.8V5.6h-3.8c-3.1 0-5.6 2.8-5.6 6.3V15H7.5v4.4h3.8v10.1C4.8 27.9 0 22 0 15 0 6.7 6.7 0 15 0s15 6.7 15 15c0 8.1-6.4 14.7-14.4 15z" />
        </svg>
    </symbol>
    <symbol id="modules-social-twitter">
        <svg xmlns="http://www.w3.org/2000/svg" viewBox="0 0 30 30">
            <path d="M30 15c0 8.3-6.7 15-15 15S0 23.3 0 15 6.7 0 15 0s15 6.7 15 15zm-3.7-5.5c-.8.3-1.6.6-2.5.7.9-.5 1.5-1.4 1.8-2.4-.8.5-1.7.8-2.7 1-.8-.8-1.9-1.4-3.1-1.4-2.4 0-4.2 1.9-4.2 4.3 0 .3 0 .7.1 1-3.5-.2-6.7-1.9-8.8-4.5-.3.7-.6 1.4-.6 2.2 0 1.5.7 2.8 1.9 3.5-.7 0-1.4-.2-1.9-.5 0 2.1 1.5 3.8 3.4 4.2-.3.1-.7.1-1.1.1-.3 0-.6 0-.8-.1.5 1.7 2.1 2.8 4 2.9-1.5 1.1-3.3 1.9-5.3 1.9-.3 0-.7 0-1-.1 1.9 1.2 4.1 1.9 6.5 1.9 7.8 0 12.1-6.5 12.1-12.1v-.6c.9-.4 1.6-1.2 2.2-2z" />
        </svg>
    </symbol>
    <symbol id="modules-social-youtube">
        <svg xmlns="http://www.w3.org/2000/svg" viewBox="0 0 30 30">
            <path d="M30 15c0 8.3-6.7 15-15 15S0 23.3 0 15 6.7 0 15 0s15 6.7 15 15zm-5.6 0c0-6.9 0-6.9-9.4-6.9s-9.4 0-9.4 6.9 0 6.9 9.4 6.9 9.4 0 9.4-6.9zm-11.9-3.7l6.3 3.8-6.3 3.8v-7.6z" />
        </svg>
    </symbol>
    <symbol id="modules-social-instagram">
        <svg xmlns="http://www.w3.org/2000/svg" viewBox="0 0 30 30">
            <path d="M15 30C6.7 30 0 23.3 0 15c0-1.1.1-2.1.3-3.1h7.2c-.4 1-.6 2-.6 3.1 0 4.5 3.6 8.1 8.1 8.1s8.1-3.6 8.1-8.1c0-1.1-.2-2.2-.6-3.1h7.2c.2 1 .3 2 .3 3.1 0 8.3-6.7 15-15 15zm5.9-20.6c-1.5-1.5-3.6-2.5-5.9-2.5s-4.4 1-5.9 2.5h-8C3.3 3.9 8.7 0 15 0s11.7 3.9 13.9 9.4h-8zm-.3 5.6c0 3.1-2.5 5.6-5.6 5.6-3.1 0-5.6-2.5-5.6-5.6 0-3.1 2.5-5.6 5.6-5.6 3.1 0 5.6 2.5 5.6 5.6z" />
        </svg>
    </symbol>
    <symbol id="modules-social-linkedin">
        <svg xmlns="http://www.w3.org/2000/svg" viewBox="0 0 30 30">
            <path d="M30 15c0 8.3-6.7 15-15 15S0 23.3 0 15 6.7 0 15 0s15 6.7 15 15zM11.3 7.8c0-1.2-1-2.2-2.5-2.2s-2.5.9-2.5 2.2c0 1.2 1 2.2 2.5 2.2s2.5-1 2.5-2.2zm-.7 4.1H6.9v10.6h3.8V11.9zm13.8 5c0-3.4-1.7-5.6-4.4-5.6-1.5 0-2.6.9-3.1 2.3l-.1-1.6H13c0 .4.1 2.5.1 2.5v8.1h3.8V17c0-1.5.7-2.5 1.8-2.5s1.9.6 1.9 2.5v5.6h3.8v-5.7z" />
        </svg>
    </symbol>
    <symbol id="modules-social-pinterest">
        <svg xmlns="http://www.w3.org/2000/svg" viewBox="0 0 30 30">
            <path d="M15 30c-1.5 0-2.9-.2-4.3-.6.6-.9 1.2-2 1.5-3.2.2-.7 1-4.1 1-4.1.5 1 2 1.9 3.7 1.9 4.8 0 8.1-4.4 8.1-10.3 0-4.4-3.8-8.6-9.5-8.6-7.1-.1-10.6 5-10.6 9.3 0 2.6 1 4.9 3.1 5.7.3.1.7 0 .8-.4.1-.2.2-.9.3-1.2.1-.4 0-.5-.2-.8-.6-.7-1-1.6-1-3 0-3.8 2.8-7.2 7.4-7.2 4 0 6.2 2.5 6.2 5.8 0 4.3-1.9 8-4.8 8-1.6 0-2.7-1.3-2.4-2.9.5-1.9 1.3-4 1.3-5.3 0-1.2-.7-2.3-2-2.3-1.6 0-2.9 1.7-2.9 3.9 0 1.4.5 2.4.5 2.4S9.5 24 9.3 25.3c-.3 1.1-.4 2.4-.3 3.5-5.3-2.4-9-7.7-9-13.8C0 6.7 6.7 0 15 0s15 6.7 15 15-6.7 15-15 15z" />
        </svg>
    </symbol>
    <symbol id="modules-globe-simple">
        <svg xmlns="http://www.w3.org/2000/svg" viewBox="197.3 314.6 90.6 90.6">
            <path d="M287.9 359.9c0 25-20.2 45.3-45.3 45.3s-45.3-20.2-45.3-45.3 20.2-45.3 45.3-45.3 45.3 20.3 45.3 45.3zm-22.7 13.2c0-7.3-5.9-13.2-13.2-13.2h-7.5c-5.7 0-9.4-2.8-9.4-6.6 0-2.6 2.1-4.7 4.7-4.7 3.8 0 3.9 3.8 6.6 3.8 2.1 0 3.8-1.7 3.8-3.8 0-3.7-1.8-5.6-3.6-7.3 1-2 3.5-7.2 3.6-14.8 0-.9-.6-1.8-1.6-1.9-2-.3-4-.5-6-.5-15.9.5-26.4 8.1-26.4 20.7 0 11.3 9.4 20.7 20.7 20.7h.3c-.2.9-.3 1.9-.3 2.8 0 5.8 4 10.7 9.4 11.9v13.5c0 1 .8 1.9 1.9 1.9 5.7.2 17-9.3 17-22.5z" />
        </svg>
    </symbol>
    <symbol id="modules-nav-arrow-down">
        <svg xmlns="http://www.w3.org/2000/svg" viewBox="0 0 10 5">
            <path d="M0,0l5,5l5-5H0z" />
        </svg>
    </symbol>
    <symbol id="logos-shopify-white">
        <svg xmlns="http://www.w3.org/2000/svg" viewBox="0 0 608 173.7">
            <path fill="#95BF47" d="M130.7 32.9c-.1-.9-.9-1.3-1.5-1.4-.6-.1-12.6-.2-12.6-.2s-10.1-9.8-11.1-10.8-2.9-.7-3.7-.5c0 0-1.9.6-5.1 1.6-.5-1.7-1.3-3.8-2.4-5.9-3.6-6.9-8.8-10.5-15.2-10.5-.4 0-.9 0-1.3.1-.2-.2-.4-.4-.6-.7-2.8-3-6.3-4.4-10.5-4.3-8.2.2-16.3 6.1-23 16.7-4.7 7.4-8.2 16.7-9.2 23.9-9.4 2.9-16 4.9-16.1 5-4.7 1.5-4.9 1.6-5.5 6.1C12.4 55.3 0 151.4 0 151.4l104.1 18 45.1-11.2S130.8 33.7 130.7 32.9zm-39.2-9.7c-2.4.7-5.1 1.6-8.1 2.5-.1-4.1-.6-9.9-2.5-14.9 6.3 1.2 9.3 8.2 10.6 12.4zM78 27.4c-5.5 1.7-11.4 3.5-17.4 5.4 1.7-6.4 4.9-12.8 8.8-17 1.5-1.6 3.5-3.3 5.9-4.3 2.3 4.7 2.7 11.4 2.7 15.9zM66.8 5.8c1.9 0 3.5.4 4.9 1.3-2.2 1.1-4.4 2.8-6.4 5-5.2 5.6-9.2 14.2-10.8 22.6-5 1.5-9.8 3-14.3 4.4 3-13.2 14-32.9 26.6-33.3z" />
            <path fill="#5E8E3E" d="M129.2 31.5c-.6-.1-12.6-.2-12.6-.2s-10.1-9.8-11.1-10.8c-.4-.4-.9-.6-1.4-.6v149.5l45.1-11.2S130.8 33.8 130.7 32.9c-.2-.9-.9-1.3-1.5-1.4z" />
            <path fill="#FFF" d="M79.1 54.7l-5.2 19.6s-5.8-2.7-12.8-2.2c-10.2.6-10.3 7-10.2 8.7.6 8.8 23.6 10.7 24.9 31.2 1 16.2-8.6 27.2-22.4 28.1-16.6 1-25.7-8.7-25.7-8.7l3.5-14.9s9.2 6.9 16.5 6.5c4.8-.3 6.5-4.2 6.3-7-.7-11.4-19.5-10.8-20.7-29.5-1-15.8 9.4-31.8 32.3-33.3 9-.8 13.5 1.5 13.5 1.5z" />
            <g fill="#FFF">
                <path d="M210.3 96.5c-5.2-2.8-7.9-5.2-7.9-8.5 0-4.2 3.7-6.9 9.6-6.9 6.8 0 12.8 2.8 12.8 2.8l4.8-14.6s-4.4-3.4-17.3-3.4c-18 0-30.5 10.3-30.5 24.8 0 8.2 5.8 14.5 13.6 19 6.3 3.6 8.5 6.1 8.5 9.9 0 3.9-3.1 7-9 7-8.7 0-16.9-4.5-16.9-4.5l-5.1 14.6s7.6 5.1 20.3 5.1c18.5 0 31.8-9.1 31.8-25.5.1-8.9-6.6-15.2-14.7-19.8zM284.1 65.7c-9.1 0-16.3 4.3-21.8 10.9l-.3-.1 7.9-41.4h-20.6l-20 105.3h20.6l6.9-36c2.7-13.6 9.7-22 16.3-22 4.6 0 6.4 3.1 6.4 7.6 0 2.8-.3 6.3-.9 9.1l-7.8 41.2h20.6l8.1-42.6c.9-4.5 1.5-9.9 1.5-13.4 0-11.5-6.2-18.6-16.9-18.6zM347.6 65.7c-24.8 0-41.2 22.4-41.2 47.4 0 16 9.9 28.8 28.4 28.8 24.3 0 40.8-21.8 40.8-47.4-.1-14.7-8.8-28.8-28-28.8zm-10.2 60.4c-7 0-10-6-10-13.4 0-11.8 6.1-31.1 17.3-31.1 7.3 0 9.7 6.3 9.7 12.4 0 12.7-6.1 32.1-17 32.1zM428.2 65.7c-13.9 0-21.8 12.2-21.8 12.2h-.3l1.2-11.1h-18.2c-.9 7.5-2.5 18.8-4.2 27.3l-14.3 75.4h20.6l5.7-30.5h.4s4.2 2.7 12.1 2.7c24.2 0 40-24.8 40-49.9.1-13.7-6.1-26.1-21.2-26.1zm-19.7 60.7c-5.4 0-8.5-3-8.5-3l3.4-19.3c2.4-12.8 9.1-21.4 16.3-21.4 6.3 0 8.2 5.8 8.2 11.4 0 13.3-7.9 32.3-19.4 32.3zM478.9 36.2c-6.6 0-11.8 5.2-11.8 12 0 6.1 3.9 10.3 9.7 10.3h.3c6.4 0 12-4.3 12.1-12 0-6-4-10.3-10.3-10.3zM450.1 140.4h20.6l14-73h-20.8zM537.1 67.2h-14.3l.7-3.4c1.2-7 5.4-13.3 12.2-13.3 3.7 0 6.6 1 6.6 1l4-16.1s-3.6-1.8-11.2-1.8c-7.3 0-14.6 2.1-20.2 6.9-7 6-10.3 14.6-12 23.3l-.6 3.4h-9.6l-3 15.5h9.6l-10.9 57.7H509l10.9-57.7h14.2l3-15.5zM586.7 67.4s-12.9 32.5-18.7 50.2h-.3c-.4-5.7-5.1-50.2-5.1-50.2H541l12.4 67.1c.3 1.5.1 2.4-.4 3.4-2.4 4.6-6.4 9.1-11.2 12.4-3.9 2.8-8.2 4.6-11.7 5.8l5.7 17.5c4.2-.9 12.8-4.3 20.2-11.2 9.4-8.8 18.1-22.4 27-40.9l25.2-54.1h-21.5z" />
            </g>
        </svg>
    </symbol>
    <symbol id="modules-caret-right">
        <svg xmlns="http://www.w3.org/2000/svg" viewBox="-242.1 245.6 6.6 10.3">
            <path d="M-235.6 250.7l-5.1 5.2-1.4-1.4 3.7-3.8-3.7-3.7 1.4-1.4" />
        </svg>
    </symbol>
    <symbol id="modules-caret-down">
        <svg xmlns="http://www.w3.org/2000/svg" baseProfile="tiny" viewBox="0 0 10.289 6.563">
            <path d="M5.212 6.563L0 1.423 1.404 0l3.788 3.735L8.865.01l1.424 1.404" />
        </svg>
    </symbol>
    <symbol id="modules-mobile-hamburger">
        <svg xmlns="http://www.w3.org/2000/svg" viewBox="0 0 20 20">
            <path d="M19 11H1c-.552 0-1-.447-1-1s.448-1 1-1h18c.552 0 1 .447 1 1s-.448 1-1 1zm0-7H1c-.552 0-1-.447-1-1s.448-1 1-1h18c.552 0 1 .447 1 1s-.448 1-1 1zm0 14H1c-.552 0-1-.447-1-1s.448-1 1-1h18c.552 0 1 .447 1 1s-.448 1-1 1z" />
        </svg>
    </symbol>
    <symbol id="logos-shopify-black">
        <svg xmlns="http://www.w3.org/2000/svg" viewBox="0 0 608 173.7">
            <path fill="#95BF47" d="M130.7 32.9c-.1-.9-.9-1.3-1.5-1.4-.6-.1-12.6-.2-12.6-.2s-10.1-9.8-11.1-10.8-2.9-.7-3.7-.5c0 0-1.9.6-5.1 1.6-.5-1.7-1.3-3.8-2.4-5.9-3.6-6.9-8.8-10.5-15.2-10.5-.4 0-.9 0-1.3.1-.2-.2-.4-.4-.6-.7-2.8-3-6.3-4.4-10.5-4.3-8.2.2-16.3 6.1-23 16.7-4.7 7.4-8.2 16.7-9.2 23.9-9.4 2.9-16 4.9-16.1 5-4.7 1.5-4.9 1.6-5.5 6.1C12.4 55.3 0 151.4 0 151.4l104.1 18 45.1-11.2S130.8 33.7 130.7 32.9zm-39.2-9.7c-2.4.7-5.1 1.6-8.1 2.5-.1-4.1-.6-9.9-2.5-14.9 6.3 1.2 9.3 8.2 10.6 12.4zM78 27.4c-5.5 1.7-11.4 3.5-17.4 5.4 1.7-6.4 4.9-12.8 8.8-17 1.5-1.6 3.5-3.3 5.9-4.3 2.3 4.7 2.7 11.4 2.7 15.9zM66.8 5.8c1.9 0 3.5.4 4.9 1.3-2.2 1.1-4.4 2.8-6.4 5-5.2 5.6-9.2 14.2-10.8 22.6-5 1.5-9.8 3-14.3 4.4 3-13.2 14-32.9 26.6-33.3z" />
            <path fill="#5E8E3E" d="M129.2 31.5c-.6-.1-12.6-.2-12.6-.2s-10.1-9.8-11.1-10.8c-.4-.4-.9-.6-1.4-.6v149.5l45.1-11.2S130.8 33.8 130.7 32.9c-.2-.9-.9-1.3-1.5-1.4z" />
            <path fill="#FFF" d="M79.1 54.7l-5.2 19.6s-5.8-2.7-12.8-2.2c-10.2.6-10.3 7-10.2 8.7.6 8.8 23.6 10.7 24.9 31.2 1 16.2-8.6 27.2-22.4 28.1-16.6 1-25.7-8.7-25.7-8.7l3.5-14.9s9.2 6.9 16.5 6.5c4.8-.3 6.5-4.2 6.3-7-.7-11.4-19.5-10.8-20.7-29.5-1-15.8 9.4-31.8 32.3-33.3 9-.8 13.5 1.5 13.5 1.5z" />
            <g>
                <path d="M210.3 96.5c-5.2-2.8-7.9-5.2-7.9-8.5 0-4.2 3.7-6.9 9.6-6.9 6.8 0 12.8 2.8 12.8 2.8l4.8-14.6s-4.4-3.4-17.3-3.4c-18 0-30.5 10.3-30.5 24.8 0 8.2 5.8 14.5 13.6 19 6.3 3.6 8.5 6.1 8.5 9.9 0 3.9-3.1 7-9 7-8.7 0-16.9-4.5-16.9-4.5l-5.1 14.6s7.6 5.1 20.3 5.1c18.5 0 31.8-9.1 31.8-25.5.1-8.9-6.6-15.2-14.7-19.8zM284.1 65.7c-9.1 0-16.3 4.3-21.8 10.9l-.3-.1 7.9-41.4h-20.6l-20 105.3h20.6l6.9-36c2.7-13.6 9.7-22 16.3-22 4.6 0 6.4 3.1 6.4 7.6 0 2.8-.3 6.3-.9 9.1l-7.8 41.2h20.6l8.1-42.6c.9-4.5 1.5-9.9 1.5-13.4 0-11.5-6.2-18.6-16.9-18.6zM347.6 65.7c-24.8 0-41.2 22.4-41.2 47.4 0 16 9.9 28.8 28.4 28.8 24.3 0 40.8-21.8 40.8-47.4-.1-14.7-8.8-28.8-28-28.8zm-10.2 60.4c-7 0-10-6-10-13.4 0-11.8 6.1-31.1 17.3-31.1 7.3 0 9.7 6.3 9.7 12.4 0 12.7-6.1 32.1-17 32.1zM428.2 65.7c-13.9 0-21.8 12.2-21.8 12.2h-.3l1.2-11.1h-18.2c-.9 7.5-2.5 18.8-4.2 27.3l-14.3 75.4h20.6l5.7-30.5h.4s4.2 2.7 12.1 2.7c24.2 0 40-24.8 40-49.9.1-13.7-6.1-26.1-21.2-26.1zm-19.7 60.7c-5.4 0-8.5-3-8.5-3l3.4-19.3c2.4-12.8 9.1-21.4 16.3-21.4 6.3 0 8.2 5.8 8.2 11.4 0 13.3-7.9 32.3-19.4 32.3zM478.9 36.2c-6.6 0-11.8 5.2-11.8 12 0 6.1 3.9 10.3 9.7 10.3h.3c6.4 0 12-4.3 12.1-12 0-6-4-10.3-10.3-10.3zM450.1 140.4h20.6l14-73h-20.8zM537.1 67.2h-14.3l.7-3.4c1.2-7 5.4-13.3 12.2-13.3 3.7 0 6.6 1 6.6 1l4-16.1s-3.6-1.8-11.2-1.8c-7.3 0-14.6 2.1-20.2 6.9-7 6-10.3 14.6-12 23.3l-.6 3.4h-9.6l-3 15.5h9.6l-10.9 57.7H509l10.9-57.7h14.2l3-15.5zM586.7 67.4s-12.9 32.5-18.7 50.2h-.3c-.4-5.7-5.1-50.2-5.1-50.2H541l12.4 67.1c.3 1.5.1 2.4-.4 3.4-2.4 4.6-6.4 9.1-11.2 12.4-3.9 2.8-8.2 4.6-11.7 5.8l5.7 17.5c4.2-.9 12.8-4.3 20.2-11.2 9.4-8.8 18.1-22.4 27-40.9l25.2-54.1h-21.5z" />
            </g>
        </svg>
    </symbol>
    <symbol id="modules-cancel">
        <svg xmlns="http://www.w3.org/2000/svg" viewBox="0 0 20 20">
            <path d="M11.414 10l6.293-6.293c.39-.39.39-1.023 0-1.414s-1.023-.39-1.414 0L10 8.586 3.707 2.293c-.39-.39-1.023-.39-1.414 0s-.39 1.023 0 1.414L8.586 10l-6.293 6.293c-.39.39-.39 1.023 0 1.414.195.195.45.293.707.293s.512-.098.707-.293L10 11.414l6.293 6.293c.195.195.45.293.707.293s.512-.098.707-.293c.39-.39.39-1.023 0-1.414L11.414 10z" />
        </svg>
    </symbol>
    <symbol id="modules-nav-external-indicator">
        <svg xmlns="http://www.w3.org/2000/svg" viewBox="0 0 7 7">
            <path d="M7,7V0H0L7,7z" />
        </svg>
    </symbol>
    <symbol id="modules-close">
        <svg xmlns="http://www.w3.org/2000/svg" viewBox="0 0 44 44">
            <path d="M39.196 43.3L1.154 5.256l3.89-3.89 38.04 38.043z" />
            <path d="M.54 39.413L38.58 1.37l3.89 3.89L4.428 43.302z" />
        </svg>
    </symbol>
</svg>
<svg xmlns="http://www.w3.org/2000/svg">
    <symbol id="modules-checked">
        <svg xmlns="http://www.w3.org/2000/svg" viewBox="0 0 40.7 40">
            <path d="M16.7 30l-7.4-7.9c-.8-.8-.6-2 .4-2.6 1-.6 2.4-.5 3.1.3l3.7 4 11.3-13c.7-.8 2.1-1 3.1-.4s1.2 1.8.5 2.6L16.7 30z" />
        </svg>
    </symbol>
    <symbol id="modules-tabbed-carousel-arrow-left">
        <svg xmlns="http://www.w3.org/2000/svg" viewBox="0 0 24 11">
            <path d="M5.5 0c.1 0 .3 0 .4.1.1.2.1.6-.1.8L1.2 5.5l4.6 4.6c.2.2.2.5 0 .7-.2.2-.5.2-.7 0l-5-5c-.1-.2-.1-.5 0-.7l5-5c.1-.1.3-.1.4-.1z" />
            <path d="M.5 5h23c.2 0 .5.2.5.5s-.3.5-.5.5H.5C.2 6 0 5.8 0 5.5S.2 5 .5 5z" />
        </svg>
    </symbol>
    <symbol id="modules-tabbed-carousel-arrow-right">
        <svg xmlns="http://www.w3.org/2000/svg" viewBox="0 0 24 11">
            <path d="M18.5 11c-.1 0-.3 0-.4-.1-.2-.2-.2-.5 0-.7l4.6-4.6L18.1 1c-.2-.2-.2-.5 0-.7.2-.2.5-.2.7 0l5 5c.2.2.2.5 0 .7l-5 5c-.1-.1-.2 0-.3 0z" />
            <path d="M23.5 6H.5C.2 6 0 5.8 0 5.5S.2 5 .5 5h23c.2 0 .5.2.5.5s-.3.5-.5.5z" />
        </svg>
    </symbol>
    <symbol id="logos-plus-black">
        <svg xmlns="http://www.w3.org/2000/svg" viewBox="0 0 446 92.6">
            <path id="s_7_" d="M112.2 51.6c-2.8-1.5-4.2-2.8-4.2-4.5 0-2.2 2-3.7 5.1-3.7 3.6 0 6.9 1.5 6.9 1.5l2.5-7.8s-2.3-1.8-9.2-1.8c-9.6 0-16.3 5.5-16.3 13.2 0 4.4 3.1 7.7 7.3 10.1 3.3 1.9 4.5 3.3 4.5 5.3 0 2.1-1.7 3.7-4.8 3.7-4.6 0-9-2.4-9-2.4L92.3 73s4 2.7 10.8 2.7c9.9 0 17-4.9 17-13.6 0-4.7-3.6-8-7.9-10.5z" />
            <path id="h_7_" d="M151.5 35.2c-4.9 0-8.7 2.3-11.6 5.8l-.2-.1 4.2-22.1h-11L122.3 75h11l3.7-19.2c1.4-7.3 5.2-11.7 8.7-11.7 2.5 0 3.4 1.7 3.4 4.1 0 1.5-.2 3.3-.5 4.9l-4.1 22h11l4.3-22.7c.5-2.4.8-5.3.8-7.2-.1-6.3-3.3-10-9.1-10z" />
            <path id="o_7_" d="M185.4 35.2c-13.2 0-22 12-22 25.3 0 8.5 5.3 15.4 15.1 15.4 13 0 21.8-11.6 21.8-25.3 0-7.9-4.6-15.4-14.9-15.4zM180 67.4c-3.7 0-5.3-3.2-5.3-7.2 0-6.3 3.3-16.6 9.2-16.6 3.9 0 5.2 3.3 5.2 6.6 0 6.8-3.3 17.2-9.1 17.2z" />
            <path id="p_7_" d="M228.4 35.2c-7.4 0-11.6 6.5-11.6 6.5h-.2l.6-5.9h-9.7c-.5 4-1.4 10-2.2 14.6l-7.6 40.2h11l3-16.3h.2s2.3 1.4 6.5 1.4c12.9 0 21.4-13.2 21.4-26.6 0-7.3-3.3-13.9-11.4-13.9zm-10.5 32.3c-2.9 0-4.5-1.6-4.5-1.6l1.8-10.3c1.3-6.9 4.9-11.4 8.7-11.4 3.3 0 4.4 3.1 4.4 6.1 0 7.1-4.2 17.2-10.4 17.2z" />
            <path id="dot_7_" d="M255.5 19.4c-3.5 0-6.3 2.8-6.3 6.4 0 3.3 2.1 5.5 5.2 5.5h.2c3.4 0 6.4-2.3 6.5-6.4-.2-3.2-2.3-5.5-5.6-5.5z" />
            <path id="i_7_" d="M240.1 75h11l7.5-38.9h-11.1z" />
            <path id="f_7_" d="M286.5 36h-7.6l.4-1.8c.6-3.7 2.9-7.1 6.5-7.1 2 0 3.5.6 3.5.6l2.2-8.6s-1.9-1-6-1c-3.9 0-7.8 1.1-10.8 3.7-3.7 3.2-5.5 7.8-6.4 12.4L268 36h-5.1l-1.6 8.3h5.1L260.6 75h11l5.8-30.8h7.6l1.5-8.2z" />
            <path id="y_7_" d="M313 36.1s-6.9 17.3-10 26.8h-.2c-.2-3-2.7-26.8-2.7-26.8h-11.6l6.6 35.8c.2.8.1 1.3-.2 1.8-1.3 2.5-3.4 4.9-6 6.6-2.1 1.5-4.4 2.5-6.2 3.1l3 9.3c2.2-.5 6.9-2.3 10.8-6 5-4.7 9.6-12 14.4-21.8l13.5-28.8H313z" />
            <g>
                <path d="M54.3 10.8s-1 .3-2.7.8c-.3-.9-.7-2-1.3-3.2-1.9-3.6-4.7-5.6-8.1-5.6h-.7c-.1-.1-.2-.2-.3-.4C39.7.8 37.8.1 35.6.1 31.2.2 26.9 3.4 23.4 9c-2.5 3.9-4.4 8.9-4.9 12.7-5 1.6-8.5 2.6-8.6 2.7-2.5.8-2.6.9-2.9 3.3-.3 1.8-6.9 53-6.9 53l55 9.5V10.7c-.4 0-.7.1-.8.1zm-12.7 3.9c-2.9.9-6.1 1.9-9.3 2.9.9-3.4 2.6-6.8 4.7-9.1.8-.8 1.9-1.8 3.1-2.3 1.3 2.5 1.5 6.1 1.5 8.5zM35.7 3.2c1 0 1.9.2 2.6.7-1.2.6-2.3 1.5-3.4 2.6-2.8 3-4.9 7.6-5.7 12.1-2.6.8-5.2 1.6-7.6 2.4C23 13.9 28.9 3.4 35.7 3.2zm-8.5 40c.3 4.7 12.6 5.7 13.3 16.6.5 8.6-4.6 14.5-11.9 15-8.8.6-13.7-4.7-13.7-4.7l1.9-8s4.9 3.7 8.8 3.4c2.6-.2 3.5-2.2 3.4-3.7-.4-6.1-10.4-5.7-11-15.8-.5-8.4 5-17 17.2-17.8 4.7-.3 7.1.9 7.1.9l-2.8 10.5s-3.1-1.4-6.8-1.2c-5.5.5-5.6 3.9-5.5 4.8zm17.3-29.4c0-2.2-.3-5.3-1.3-7.9 3.3.6 4.9 4.4 5.6 6.6-1.3.4-2.7.8-4.3 1.3zM56.8 90.1l22.8-5.7S69.8 18 69.7 17.6c-.1-.5-.5-.7-.8-.7-.3 0-6.7-.1-6.7-.1s-3.9-3.8-5.4-5.2v78.5z" />
            </g>
            <path d="M347.7 35.4c-5.7 0-10.3 2-13.6 5.8l.6-3.3c.2-1.1-.5-1.9-1.6-1.9s-2.1.9-2.3 1.9L321 88.7c-.2 1.1.5 1.9 1.6 1.9s2.1-.9 2.3-1.9l3.6-18.9c1.3 2.4 4.4 5.7 11.4 5.7 5.5 0 10-1.7 13.6-5 3.7-3.4 6.2-8.5 7.5-15.1 1.3-6.6.7-11.7-1.7-15.1-2.2-3.2-6.1-4.9-11.6-4.9zm-7 36.6c-8.3 0-11.6-5.7-9.5-16.5 2.1-10.9 7.4-16.5 15.6-16.5 9 0 12.4 5.4 10.2 16.5-2.1 11.2-7.3 16.5-16.3 16.5zM432.3 53.3c-4.9-1.8-9.6-3.5-8.7-8.1.4-2.3 2.3-6.2 9.9-6.2 4.2 0 6.9 1.2 9.2 4 .4.5.9.5 1.1.5 1 0 1.9-.8 2.1-1.8.1-.5 0-.8-.2-1.2-2.4-3.4-6.2-5.1-11.6-5.1-7.7 0-13.3 3.7-14.4 9.7-1.4 7.2 5 9.6 10.6 11.7 4.9 1.8 9.4 3.6 8.6 8-1.2 6.2-7.7 7.1-11.5 7.1-5.2 0-8.4-1.4-10.8-4.7-.3-.4-.7-.5-1.1-.5-.9 0-1.9.7-2.1 1.8-.1.5 0 .8.2 1.2 1.6 2.9 6.2 5.8 13.1 5.8 8.8 0 14.8-4 16.1-10.7 1.4-7.1-4.9-9.5-10.5-11.5zM420.5 25.3h-4.1l.8-4.1c.2-1.1-.5-1.9-1.6-1.9s-2.1.9-2.3 1.9l-.8 4.1h-4.1c-1.1 0-2.1.9-2.3 1.9-.2 1.1.5 1.9 1.6 1.9h4.1l-.8 4.1c-.2 1.1.5 1.9 1.6 1.9s2.1-.9 2.3-1.9l.8-4.1h4.1c1.1 0 2.1-.9 2.3-1.9.2-1-.5-1.9-1.6-1.9zM411.5 39.6c-1.1 0-2.1.9-2.3 1.9l-3.7 19.3c-2 9.8-8.1 11.2-13.7 11.2-10.2 0-10.4-5.8-9.4-11.5l4.4-22.7c.2-1.1-.5-1.9-1.6-1.9s-2.1.9-2.3 1.9l-4.4 22.7c-.9 4.6-.6 8 1 10.4 1.9 3.1 5.8 4.6 11.6 4.6s10.3-1.6 13.4-4.6c2.5-2.4 4.1-5.9 5-10.4l3.7-19c.1-1-.6-1.9-1.7-1.9zM376.4 19.4c-1.1 0-2.1.9-2.3 1.9l-10 51.8c-.2 1.1.5 1.9 1.6 1.9s2.1-.9 2.3-1.9l10-51.8c.2-1-.5-1.9-1.6-1.9z" />
        </svg>
    </symbol>
    <symbol id="modules-social-facebook">
        <svg xmlns="http://www.w3.org/2000/svg" viewBox="0 0 30 30">
            <path d="M15.6 30V19.4h5V15h-5v-3.1c0-1 .6-1.9 1.3-1.9h3.8V5.6h-3.8c-3.1 0-5.6 2.8-5.6 6.3V15H7.5v4.4h3.8v10.1C4.8 27.9 0 22 0 15 0 6.7 6.7 0 15 0s15 6.7 15 15c0 8.1-6.4 14.7-14.4 15z" />
        </svg>
    </symbol>
    <symbol id="modules-social-twitter">
        <svg xmlns="http://www.w3.org/2000/svg" viewBox="0 0 30 30">
            <path d="M30 15c0 8.3-6.7 15-15 15S0 23.3 0 15 6.7 0 15 0s15 6.7 15 15zm-3.7-5.5c-.8.3-1.6.6-2.5.7.9-.5 1.5-1.4 1.8-2.4-.8.5-1.7.8-2.7 1-.8-.8-1.9-1.4-3.1-1.4-2.4 0-4.2 1.9-4.2 4.3 0 .3 0 .7.1 1-3.5-.2-6.7-1.9-8.8-4.5-.3.7-.6 1.4-.6 2.2 0 1.5.7 2.8 1.9 3.5-.7 0-1.4-.2-1.9-.5 0 2.1 1.5 3.8 3.4 4.2-.3.1-.7.1-1.1.1-.3 0-.6 0-.8-.1.5 1.7 2.1 2.8 4 2.9-1.5 1.1-3.3 1.9-5.3 1.9-.3 0-.7 0-1-.1 1.9 1.2 4.1 1.9 6.5 1.9 7.8 0 12.1-6.5 12.1-12.1v-.6c.9-.4 1.6-1.2 2.2-2z" />
        </svg>
    </symbol>
    <symbol id="modules-social-youtube">
        <svg xmlns="http://www.w3.org/2000/svg" viewBox="0 0 30 30">
            <path d="M30 15c0 8.3-6.7 15-15 15S0 23.3 0 15 6.7 0 15 0s15 6.7 15 15zm-5.6 0c0-6.9 0-6.9-9.4-6.9s-9.4 0-9.4 6.9 0 6.9 9.4 6.9 9.4 0 9.4-6.9zm-11.9-3.7l6.3 3.8-6.3 3.8v-7.6z" />
        </svg>
    </symbol>
    <symbol id="modules-social-instagram">
        <svg xmlns="http://www.w3.org/2000/svg" viewBox="0 0 30 30">
            <path d="M15 30C6.7 30 0 23.3 0 15c0-1.1.1-2.1.3-3.1h7.2c-.4 1-.6 2-.6 3.1 0 4.5 3.6 8.1 8.1 8.1s8.1-3.6 8.1-8.1c0-1.1-.2-2.2-.6-3.1h7.2c.2 1 .3 2 .3 3.1 0 8.3-6.7 15-15 15zm5.9-20.6c-1.5-1.5-3.6-2.5-5.9-2.5s-4.4 1-5.9 2.5h-8C3.3 3.9 8.7 0 15 0s11.7 3.9 13.9 9.4h-8zm-.3 5.6c0 3.1-2.5 5.6-5.6 5.6-3.1 0-5.6-2.5-5.6-5.6 0-3.1 2.5-5.6 5.6-5.6 3.1 0 5.6 2.5 5.6 5.6z" />
        </svg>
    </symbol>
    <symbol id="modules-social-linkedin">
        <svg xmlns="http://www.w3.org/2000/svg" viewBox="0 0 30 30">
            <path d="M30 15c0 8.3-6.7 15-15 15S0 23.3 0 15 6.7 0 15 0s15 6.7 15 15zM11.3 7.8c0-1.2-1-2.2-2.5-2.2s-2.5.9-2.5 2.2c0 1.2 1 2.2 2.5 2.2s2.5-1 2.5-2.2zm-.7 4.1H6.9v10.6h3.8V11.9zm13.8 5c0-3.4-1.7-5.6-4.4-5.6-1.5 0-2.6.9-3.1 2.3l-.1-1.6H13c0 .4.1 2.5.1 2.5v8.1h3.8V17c0-1.5.7-2.5 1.8-2.5s1.9.6 1.9 2.5v5.6h3.8v-5.7z" />
        </svg>
    </symbol>
    <symbol id="modules-social-pinterest">
        <svg xmlns="http://www.w3.org/2000/svg" viewBox="0 0 30 30">
            <path d="M15 30c-1.5 0-2.9-.2-4.3-.6.6-.9 1.2-2 1.5-3.2.2-.7 1-4.1 1-4.1.5 1 2 1.9 3.7 1.9 4.8 0 8.1-4.4 8.1-10.3 0-4.4-3.8-8.6-9.5-8.6-7.1-.1-10.6 5-10.6 9.3 0 2.6 1 4.9 3.1 5.7.3.1.7 0 .8-.4.1-.2.2-.9.3-1.2.1-.4 0-.5-.2-.8-.6-.7-1-1.6-1-3 0-3.8 2.8-7.2 7.4-7.2 4 0 6.2 2.5 6.2 5.8 0 4.3-1.9 8-4.8 8-1.6 0-2.7-1.3-2.4-2.9.5-1.9 1.3-4 1.3-5.3 0-1.2-.7-2.3-2-2.3-1.6 0-2.9 1.7-2.9 3.9 0 1.4.5 2.4.5 2.4S9.5 24 9.3 25.3c-.3 1.1-.4 2.4-.3 3.5-5.3-2.4-9-7.7-9-13.8C0 6.7 6.7 0 15 0s15 6.7 15 15-6.7 15-15 15z" />
        </svg>
    </symbol>
    <symbol id="modules-globe-simple">
        <svg xmlns="http://www.w3.org/2000/svg" viewBox="197.3 314.6 90.6 90.6">
            <path d="M287.9 359.9c0 25-20.2 45.3-45.3 45.3s-45.3-20.2-45.3-45.3 20.2-45.3 45.3-45.3 45.3 20.3 45.3 45.3zm-22.7 13.2c0-7.3-5.9-13.2-13.2-13.2h-7.5c-5.7 0-9.4-2.8-9.4-6.6 0-2.6 2.1-4.7 4.7-4.7 3.8 0 3.9 3.8 6.6 3.8 2.1 0 3.8-1.7 3.8-3.8 0-3.7-1.8-5.6-3.6-7.3 1-2 3.5-7.2 3.6-14.8 0-.9-.6-1.8-1.6-1.9-2-.3-4-.5-6-.5-15.9.5-26.4 8.1-26.4 20.7 0 11.3 9.4 20.7 20.7 20.7h.3c-.2.9-.3 1.9-.3 2.8 0 5.8 4 10.7 9.4 11.9v13.5c0 1 .8 1.9 1.9 1.9 5.7.2 17-9.3 17-22.5z" />
        </svg>
    </symbol>
    <symbol id="modules-nav-arrow-down">
        <svg xmlns="http://www.w3.org/2000/svg" viewBox="0 0 10 5">
            <path d="M0,0l5,5l5-5H0z" />
        </svg>
    </symbol>
    <symbol id="logos-shopify-white">
        <svg xmlns="http://www.w3.org/2000/svg" viewBox="0 0 608 173.7">
            <path fill="#95BF47" d="M130.7 32.9c-.1-.9-.9-1.3-1.5-1.4-.6-.1-12.6-.2-12.6-.2s-10.1-9.8-11.1-10.8-2.9-.7-3.7-.5c0 0-1.9.6-5.1 1.6-.5-1.7-1.3-3.8-2.4-5.9-3.6-6.9-8.8-10.5-15.2-10.5-.4 0-.9 0-1.3.1-.2-.2-.4-.4-.6-.7-2.8-3-6.3-4.4-10.5-4.3-8.2.2-16.3 6.1-23 16.7-4.7 7.4-8.2 16.7-9.2 23.9-9.4 2.9-16 4.9-16.1 5-4.7 1.5-4.9 1.6-5.5 6.1C12.4 55.3 0 151.4 0 151.4l104.1 18 45.1-11.2S130.8 33.7 130.7 32.9zm-39.2-9.7c-2.4.7-5.1 1.6-8.1 2.5-.1-4.1-.6-9.9-2.5-14.9 6.3 1.2 9.3 8.2 10.6 12.4zM78 27.4c-5.5 1.7-11.4 3.5-17.4 5.4 1.7-6.4 4.9-12.8 8.8-17 1.5-1.6 3.5-3.3 5.9-4.3 2.3 4.7 2.7 11.4 2.7 15.9zM66.8 5.8c1.9 0 3.5.4 4.9 1.3-2.2 1.1-4.4 2.8-6.4 5-5.2 5.6-9.2 14.2-10.8 22.6-5 1.5-9.8 3-14.3 4.4 3-13.2 14-32.9 26.6-33.3z" />
            <path fill="#5E8E3E" d="M129.2 31.5c-.6-.1-12.6-.2-12.6-.2s-10.1-9.8-11.1-10.8c-.4-.4-.9-.6-1.4-.6v149.5l45.1-11.2S130.8 33.8 130.7 32.9c-.2-.9-.9-1.3-1.5-1.4z" />
            <path fill="#FFF" d="M79.1 54.7l-5.2 19.6s-5.8-2.7-12.8-2.2c-10.2.6-10.3 7-10.2 8.7.6 8.8 23.6 10.7 24.9 31.2 1 16.2-8.6 27.2-22.4 28.1-16.6 1-25.7-8.7-25.7-8.7l3.5-14.9s9.2 6.9 16.5 6.5c4.8-.3 6.5-4.2 6.3-7-.7-11.4-19.5-10.8-20.7-29.5-1-15.8 9.4-31.8 32.3-33.3 9-.8 13.5 1.5 13.5 1.5z" />
            <g fill="#FFF">
                <path d="M210.3 96.5c-5.2-2.8-7.9-5.2-7.9-8.5 0-4.2 3.7-6.9 9.6-6.9 6.8 0 12.8 2.8 12.8 2.8l4.8-14.6s-4.4-3.4-17.3-3.4c-18 0-30.5 10.3-30.5 24.8 0 8.2 5.8 14.5 13.6 19 6.3 3.6 8.5 6.1 8.5 9.9 0 3.9-3.1 7-9 7-8.7 0-16.9-4.5-16.9-4.5l-5.1 14.6s7.6 5.1 20.3 5.1c18.5 0 31.8-9.1 31.8-25.5.1-8.9-6.6-15.2-14.7-19.8zM284.1 65.7c-9.1 0-16.3 4.3-21.8 10.9l-.3-.1 7.9-41.4h-20.6l-20 105.3h20.6l6.9-36c2.7-13.6 9.7-22 16.3-22 4.6 0 6.4 3.1 6.4 7.6 0 2.8-.3 6.3-.9 9.1l-7.8 41.2h20.6l8.1-42.6c.9-4.5 1.5-9.9 1.5-13.4 0-11.5-6.2-18.6-16.9-18.6zM347.6 65.7c-24.8 0-41.2 22.4-41.2 47.4 0 16 9.9 28.8 28.4 28.8 24.3 0 40.8-21.8 40.8-47.4-.1-14.7-8.8-28.8-28-28.8zm-10.2 60.4c-7 0-10-6-10-13.4 0-11.8 6.1-31.1 17.3-31.1 7.3 0 9.7 6.3 9.7 12.4 0 12.7-6.1 32.1-17 32.1zM428.2 65.7c-13.9 0-21.8 12.2-21.8 12.2h-.3l1.2-11.1h-18.2c-.9 7.5-2.5 18.8-4.2 27.3l-14.3 75.4h20.6l5.7-30.5h.4s4.2 2.7 12.1 2.7c24.2 0 40-24.8 40-49.9.1-13.7-6.1-26.1-21.2-26.1zm-19.7 60.7c-5.4 0-8.5-3-8.5-3l3.4-19.3c2.4-12.8 9.1-21.4 16.3-21.4 6.3 0 8.2 5.8 8.2 11.4 0 13.3-7.9 32.3-19.4 32.3zM478.9 36.2c-6.6 0-11.8 5.2-11.8 12 0 6.1 3.9 10.3 9.7 10.3h.3c6.4 0 12-4.3 12.1-12 0-6-4-10.3-10.3-10.3zM450.1 140.4h20.6l14-73h-20.8zM537.1 67.2h-14.3l.7-3.4c1.2-7 5.4-13.3 12.2-13.3 3.7 0 6.6 1 6.6 1l4-16.1s-3.6-1.8-11.2-1.8c-7.3 0-14.6 2.1-20.2 6.9-7 6-10.3 14.6-12 23.3l-.6 3.4h-9.6l-3 15.5h9.6l-10.9 57.7H509l10.9-57.7h14.2l3-15.5zM586.7 67.4s-12.9 32.5-18.7 50.2h-.3c-.4-5.7-5.1-50.2-5.1-50.2H541l12.4 67.1c.3 1.5.1 2.4-.4 3.4-2.4 4.6-6.4 9.1-11.2 12.4-3.9 2.8-8.2 4.6-11.7 5.8l5.7 17.5c4.2-.9 12.8-4.3 20.2-11.2 9.4-8.8 18.1-22.4 27-40.9l25.2-54.1h-21.5z" />
            </g>
        </svg>
    </symbol>
    <symbol id="modules-caret-right">
        <svg xmlns="http://www.w3.org/2000/svg" viewBox="-242.1 245.6 6.6 10.3">
            <path d="M-235.6 250.7l-5.1 5.2-1.4-1.4 3.7-3.8-3.7-3.7 1.4-1.4" />
        </svg>
    </symbol>
    <symbol id="modules-caret-down">
        <svg xmlns="http://www.w3.org/2000/svg" baseProfile="tiny" viewBox="0 0 10.289 6.563">
            <path d="M5.212 6.563L0 1.423 1.404 0l3.788 3.735L8.865.01l1.424 1.404" />
        </svg>
    </symbol>
    <symbol id="modules-mobile-hamburger">
        <svg xmlns="http://www.w3.org/2000/svg" viewBox="0 0 20 20">
            <path d="M19 11H1c-.552 0-1-.447-1-1s.448-1 1-1h18c.552 0 1 .447 1 1s-.448 1-1 1zm0-7H1c-.552 0-1-.447-1-1s.448-1 1-1h18c.552 0 1 .447 1 1s-.448 1-1 1zm0 14H1c-.552 0-1-.447-1-1s.448-1 1-1h18c.552 0 1 .447 1 1s-.448 1-1 1z" />
        </svg>
    </symbol>
    <symbol id="logos-shopify-black">
        <svg xmlns="http://www.w3.org/2000/svg" viewBox="0 0 608 173.7">
            <path fill="#95BF47" d="M130.7 32.9c-.1-.9-.9-1.3-1.5-1.4-.6-.1-12.6-.2-12.6-.2s-10.1-9.8-11.1-10.8-2.9-.7-3.7-.5c0 0-1.9.6-5.1 1.6-.5-1.7-1.3-3.8-2.4-5.9-3.6-6.9-8.8-10.5-15.2-10.5-.4 0-.9 0-1.3.1-.2-.2-.4-.4-.6-.7-2.8-3-6.3-4.4-10.5-4.3-8.2.2-16.3 6.1-23 16.7-4.7 7.4-8.2 16.7-9.2 23.9-9.4 2.9-16 4.9-16.1 5-4.7 1.5-4.9 1.6-5.5 6.1C12.4 55.3 0 151.4 0 151.4l104.1 18 45.1-11.2S130.8 33.7 130.7 32.9zm-39.2-9.7c-2.4.7-5.1 1.6-8.1 2.5-.1-4.1-.6-9.9-2.5-14.9 6.3 1.2 9.3 8.2 10.6 12.4zM78 27.4c-5.5 1.7-11.4 3.5-17.4 5.4 1.7-6.4 4.9-12.8 8.8-17 1.5-1.6 3.5-3.3 5.9-4.3 2.3 4.7 2.7 11.4 2.7 15.9zM66.8 5.8c1.9 0 3.5.4 4.9 1.3-2.2 1.1-4.4 2.8-6.4 5-5.2 5.6-9.2 14.2-10.8 22.6-5 1.5-9.8 3-14.3 4.4 3-13.2 14-32.9 26.6-33.3z" />
            <path fill="#5E8E3E" d="M129.2 31.5c-.6-.1-12.6-.2-12.6-.2s-10.1-9.8-11.1-10.8c-.4-.4-.9-.6-1.4-.6v149.5l45.1-11.2S130.8 33.8 130.7 32.9c-.2-.9-.9-1.3-1.5-1.4z" />
            <path fill="#FFF" d="M79.1 54.7l-5.2 19.6s-5.8-2.7-12.8-2.2c-10.2.6-10.3 7-10.2 8.7.6 8.8 23.6 10.7 24.9 31.2 1 16.2-8.6 27.2-22.4 28.1-16.6 1-25.7-8.7-25.7-8.7l3.5-14.9s9.2 6.9 16.5 6.5c4.8-.3 6.5-4.2 6.3-7-.7-11.4-19.5-10.8-20.7-29.5-1-15.8 9.4-31.8 32.3-33.3 9-.8 13.5 1.5 13.5 1.5z" />
            <g>
                <path d="M210.3 96.5c-5.2-2.8-7.9-5.2-7.9-8.5 0-4.2 3.7-6.9 9.6-6.9 6.8 0 12.8 2.8 12.8 2.8l4.8-14.6s-4.4-3.4-17.3-3.4c-18 0-30.5 10.3-30.5 24.8 0 8.2 5.8 14.5 13.6 19 6.3 3.6 8.5 6.1 8.5 9.9 0 3.9-3.1 7-9 7-8.7 0-16.9-4.5-16.9-4.5l-5.1 14.6s7.6 5.1 20.3 5.1c18.5 0 31.8-9.1 31.8-25.5.1-8.9-6.6-15.2-14.7-19.8zM284.1 65.7c-9.1 0-16.3 4.3-21.8 10.9l-.3-.1 7.9-41.4h-20.6l-20 105.3h20.6l6.9-36c2.7-13.6 9.7-22 16.3-22 4.6 0 6.4 3.1 6.4 7.6 0 2.8-.3 6.3-.9 9.1l-7.8 41.2h20.6l8.1-42.6c.9-4.5 1.5-9.9 1.5-13.4 0-11.5-6.2-18.6-16.9-18.6zM347.6 65.7c-24.8 0-41.2 22.4-41.2 47.4 0 16 9.9 28.8 28.4 28.8 24.3 0 40.8-21.8 40.8-47.4-.1-14.7-8.8-28.8-28-28.8zm-10.2 60.4c-7 0-10-6-10-13.4 0-11.8 6.1-31.1 17.3-31.1 7.3 0 9.7 6.3 9.7 12.4 0 12.7-6.1 32.1-17 32.1zM428.2 65.7c-13.9 0-21.8 12.2-21.8 12.2h-.3l1.2-11.1h-18.2c-.9 7.5-2.5 18.8-4.2 27.3l-14.3 75.4h20.6l5.7-30.5h.4s4.2 2.7 12.1 2.7c24.2 0 40-24.8 40-49.9.1-13.7-6.1-26.1-21.2-26.1zm-19.7 60.7c-5.4 0-8.5-3-8.5-3l3.4-19.3c2.4-12.8 9.1-21.4 16.3-21.4 6.3 0 8.2 5.8 8.2 11.4 0 13.3-7.9 32.3-19.4 32.3zM478.9 36.2c-6.6 0-11.8 5.2-11.8 12 0 6.1 3.9 10.3 9.7 10.3h.3c6.4 0 12-4.3 12.1-12 0-6-4-10.3-10.3-10.3zM450.1 140.4h20.6l14-73h-20.8zM537.1 67.2h-14.3l.7-3.4c1.2-7 5.4-13.3 12.2-13.3 3.7 0 6.6 1 6.6 1l4-16.1s-3.6-1.8-11.2-1.8c-7.3 0-14.6 2.1-20.2 6.9-7 6-10.3 14.6-12 23.3l-.6 3.4h-9.6l-3 15.5h9.6l-10.9 57.7H509l10.9-57.7h14.2l3-15.5zM586.7 67.4s-12.9 32.5-18.7 50.2h-.3c-.4-5.7-5.1-50.2-5.1-50.2H541l12.4 67.1c.3 1.5.1 2.4-.4 3.4-2.4 4.6-6.4 9.1-11.2 12.4-3.9 2.8-8.2 4.6-11.7 5.8l5.7 17.5c4.2-.9 12.8-4.3 20.2-11.2 9.4-8.8 18.1-22.4 27-40.9l25.2-54.1h-21.5z" />
            </g>
        </svg>
    </symbol>
    <symbol id="modules-cancel">
        <svg xmlns="http://www.w3.org/2000/svg" viewBox="0 0 20 20">
            <path d="M11.414 10l6.293-6.293c.39-.39.39-1.023 0-1.414s-1.023-.39-1.414 0L10 8.586 3.707 2.293c-.39-.39-1.023-.39-1.414 0s-.39 1.023 0 1.414L8.586 10l-6.293 6.293c-.39.39-.39 1.023 0 1.414.195.195.45.293.707.293s.512-.098.707-.293L10 11.414l6.293 6.293c.195.195.45.293.707.293s.512-.098.707-.293c.39-.39.39-1.023 0-1.414L11.414 10z" />
        </svg>
    </symbol>
    <symbol id="modules-nav-external-indicator">
        <svg xmlns="http://www.w3.org/2000/svg" viewBox="0 0 7 7">
            <path d="M7,7V0H0L7,7z" />
        </svg>
    </symbol>
    <symbol id="modules-close">
        <svg xmlns="http://www.w3.org/2000/svg" viewBox="0 0 44 44">
            <path d="M39.196 43.3L1.154 5.256l3.89-3.89 38.04 38.043z" />
            <path d="M.54 39.413L38.58 1.37l3.89 3.89L4.428 43.302z" />
        </svg>
    </symbol>
</svg>